<svg width="559" height="176" viewBox="0 0 559 176" fill="none" xmlns="http://www.w3.org/2000/svg">
<path d="M11.6176 31V22.84L12.0031 23.9002L2.55808 8.51181H4.35714L12.9348 22.4866H12.0352L20.6129 8.51181H22.3156L12.8705 23.9002L13.256 22.84V31H11.6176ZM30.5215 31.1285C28.9152 31.1285 27.4802 30.7644 26.2166 30.0362C24.9744 29.308 23.9785 28.3014 23.2289 27.0164C22.5007 25.7313 22.1366 24.2643 22.1366 22.6151C22.1366 20.9446 22.5007 19.4775 23.2289 18.2139C23.9785 16.9288 24.9744 15.9222 26.2166 15.194C27.4802 14.4658 28.9152 14.1017 30.5215 14.1017C32.1278 14.1017 33.5628 14.4658 34.8264 15.194C36.09 15.9222 37.0859 16.9288 37.8141 18.2139C38.5423 19.4775 38.9064 20.9446 38.9064 22.6151C38.9064 24.2643 38.5423 25.7313 37.8141 27.0164C37.0859 28.3014 36.09 29.308 34.8264 30.0362C33.5628 30.7644 32.1278 31.1285 30.5215 31.1285ZM30.5215 29.6828C31.8065 29.6828 32.9631 29.3937 33.9911 28.8154C35.0191 28.2157 35.8223 27.3805 36.4006 26.3096C36.9788 25.2387 37.268 24.0072 37.268 22.6151C37.268 21.2016 36.9788 19.9701 36.4006 18.9206C35.8223 17.8498 35.0191 17.0252 33.9911 16.4469C32.9631 15.8472 31.8065 15.5474 30.5215 15.5474C29.2365 15.5474 28.0799 15.8472 27.0519 16.4469C26.0453 17.0252 25.2421 17.8498 24.6424 18.9206C24.0642 19.9701 23.775 21.2016 23.775 22.6151C23.775 24.0072 24.0642 25.2387 24.6424 26.3096C25.2421 27.3805 26.0453 28.2157 27.0519 28.8154C28.0799 29.3937 29.2365 29.6828 30.5215 29.6828ZM50.7004 31.1285C49.2654 31.1285 48.0232 30.8715 46.9738 30.3575C45.9243 29.822 45.1105 29.0296 44.5322 27.9802C43.9753 26.9093 43.6969 25.5921 43.6969 24.0287V14.2302H45.3032V23.9002C45.3032 25.7849 45.7851 27.2198 46.7489 28.205C47.7127 29.1902 49.0727 29.6828 50.8289 29.6828C52.0925 29.6828 53.1848 29.4151 54.1057 28.8797C55.0267 28.3443 55.7334 27.5946 56.226 26.6309C56.7186 25.6457 56.9649 24.4891 56.9649 23.1613V14.2302H58.5712V31H57.0292V26.3417L57.2541 26.8879C56.7615 28.1943 55.9369 29.2331 54.7804 30.0041C53.6453 30.7537 52.2853 31.1285 50.7004 31.1285ZM65.3802 31V14.2302H66.9222V18.8243L66.7616 18.3102C67.2328 16.9609 68.0252 15.9222 69.1389 15.194C70.2526 14.4658 71.6448 14.1017 73.3153 14.1017V15.6759C73.2511 15.6759 73.1868 15.6759 73.1226 15.6759C73.0583 15.6545 72.9941 15.6438 72.9298 15.6438C71.0665 15.6438 69.6101 16.2328 68.5607 17.4107C67.5112 18.5672 66.9865 20.1843 66.9865 22.2617V31H65.3802Z" fill="white"/>
<path d="M22.6219 114.067C18.7668 114.067 15.0803 113.488 11.5625 112.332C8.04473 111.127 5.27386 109.585 3.24992 107.706L5.92441 102.067C7.85197 103.754 10.3096 105.152 13.2973 106.26C16.285 107.368 19.3932 107.922 22.6219 107.922C25.5614 107.922 27.9468 107.585 29.778 106.91C31.6091 106.236 32.9584 105.32 33.8258 104.164C34.6932 102.959 35.1269 101.61 35.1269 100.116C35.1269 98.381 34.5487 96.9836 33.3921 95.9234C32.2838 94.8632 30.814 94.0199 28.9828 93.3935C27.1998 92.7188 25.2241 92.1406 23.0556 91.6587C20.8871 91.1768 18.6945 90.6226 16.4778 89.9962C14.3093 89.3215 12.3095 88.4782 10.4783 87.4662C8.69528 86.4543 7.24961 85.105 6.14126 83.4184C5.03291 81.6836 4.47874 79.4669 4.47874 76.7683C4.47874 74.1661 5.15339 71.7807 6.50268 69.6122C7.90016 67.3955 10.0205 65.6366 12.8636 64.3355C15.755 62.9862 19.4173 62.3116 23.8507 62.3116C26.7902 62.3116 29.7057 62.6971 32.597 63.4681C35.4883 64.2391 37.9942 65.3475 40.1145 66.7932L37.7291 72.5758C35.5606 71.1302 33.2717 70.0941 30.8622 69.4677C28.4528 68.793 26.1156 68.4557 23.8507 68.4557C21.0076 68.4557 18.6704 68.8171 16.8392 69.5399C15.008 70.2628 13.6587 71.2265 12.7913 72.4313C11.9721 73.636 11.5625 74.9853 11.5625 76.4791C11.5625 78.2621 12.1167 79.6837 13.225 80.7439C14.3816 81.804 15.8513 82.6473 17.6343 83.2738C19.4655 83.9002 21.4654 84.4785 23.6339 85.0086C25.8024 85.4905 27.9709 86.0447 30.1394 86.6711C32.3561 87.2976 34.3559 88.1168 36.1389 89.1288C37.9701 90.1407 39.4398 91.49 40.5482 93.1766C41.6565 94.8632 42.2107 97.0317 42.2107 99.6821C42.2107 102.236 41.512 104.622 40.1145 106.838C38.717 109.007 36.5485 110.766 33.609 112.115C30.7176 113.416 27.0553 114.067 22.6219 114.067ZM68.8178 113.922C64.7217 113.922 61.1076 113.079 57.9753 111.392C54.8912 109.705 52.4817 107.392 50.7469 104.453C49.0603 101.513 48.217 98.1401 48.217 94.3332C48.217 90.5262 49.0362 87.153 50.6747 84.2135C52.3613 81.2739 54.6502 78.985 57.5416 77.3465C60.4811 75.6599 63.7821 74.8166 67.4444 74.8166C71.155 74.8166 74.4318 75.6358 77.275 77.2743C80.1181 78.9127 82.3348 81.2258 83.925 84.2135C85.5635 87.153 86.3827 90.5985 86.3827 94.55C86.3827 94.8391 86.3586 95.1765 86.3104 95.562C86.3104 95.9475 86.2863 96.3089 86.2381 96.6462H53.6383V91.6587H82.6239L79.8049 93.3935C79.8531 90.9358 79.3471 88.7432 78.2869 86.8157C77.2268 84.8881 75.757 83.3943 73.8776 82.3341C72.0465 81.2258 69.9021 80.6716 67.4444 80.6716C65.035 80.6716 62.8906 81.2258 61.0112 82.3341C59.1318 83.3943 57.6621 84.9122 56.6019 86.888C55.5417 88.8155 55.0117 91.0322 55.0117 93.538V94.6946C55.0117 97.2486 55.5899 99.5376 56.7465 101.562C57.9512 103.537 59.6137 105.079 61.734 106.188C63.8543 107.296 66.2879 107.85 69.0347 107.85C71.2995 107.85 73.3476 107.465 75.1787 106.694C77.0581 105.923 78.6965 104.766 80.094 103.224L83.925 107.706C82.1902 109.73 80.0217 111.272 77.4195 112.332C74.8655 113.392 71.9983 113.922 68.8178 113.922ZM112.716 113.922C108.813 113.922 105.319 113.079 102.235 111.392C99.1989 109.705 96.8135 107.392 95.0787 104.453C93.3439 101.513 92.4765 98.1401 92.4765 94.3332C92.4765 90.5262 93.3439 87.153 95.0787 84.2135C96.8135 81.2739 99.1989 78.985 102.235 77.3465C105.319 75.6599 108.813 74.8166 112.716 74.8166C116.185 74.8166 119.27 75.5154 121.968 76.9128C124.715 78.2621 126.835 80.2861 128.329 82.9847L123.052 86.382C121.8 84.5026 120.257 83.1292 118.426 82.2618C116.643 81.3462 114.716 80.8884 112.644 80.8884C110.138 80.8884 107.897 81.4426 105.921 82.551C103.945 83.6593 102.379 85.2254 101.223 87.2494C100.066 89.2251 99.488 91.5864 99.488 94.3332C99.488 97.0799 100.066 99.4653 101.223 101.489C102.379 103.513 103.945 105.079 105.921 106.188C107.897 107.296 110.138 107.85 112.644 107.85C114.716 107.85 116.643 107.416 118.426 106.549C120.257 105.633 121.8 104.236 123.052 102.357L128.329 105.682C126.835 108.332 124.715 110.38 121.968 111.826C119.27 113.223 116.185 113.922 112.716 113.922ZM153.432 113.922C150.156 113.922 147.264 113.32 144.758 112.115C142.301 110.91 140.373 109.079 138.976 106.621C137.626 104.116 136.952 100.983 136.952 97.2245V75.178H143.891V96.4294C143.891 100.188 144.782 103.007 146.565 104.887C148.397 106.766 150.951 107.706 154.227 107.706C156.637 107.706 158.733 107.224 160.516 106.26C162.299 105.248 163.673 103.802 164.636 101.923C165.6 99.9954 166.082 97.6823 166.082 94.9837V75.178H173.021V113.488H166.443V103.152L167.528 105.899C166.275 108.453 164.395 110.428 161.89 111.826C159.384 113.223 156.565 113.922 153.432 113.922ZM186.232 113.488V75.178H192.882V85.5869L192.231 82.9847C193.291 80.3343 195.074 78.3103 197.58 76.9128C200.086 75.5154 203.17 74.8166 206.832 74.8166V81.539C206.543 81.4908 206.254 81.4667 205.965 81.4667C205.724 81.4667 205.483 81.4667 205.242 81.4667C201.532 81.4667 198.592 82.5751 196.424 84.7917C194.255 87.0084 193.171 90.213 193.171 94.4054V113.488H186.232ZM232.091 113.922C227.995 113.922 224.381 113.079 221.248 111.392C218.164 109.705 215.755 107.392 214.02 104.453C212.333 101.513 211.49 98.1401 211.49 94.3332C211.49 90.5262 212.309 87.153 213.948 84.2135C215.634 81.2739 217.923 78.985 220.815 77.3465C223.754 75.6599 227.055 74.8166 230.718 74.8166C234.428 74.8166 237.705 75.6358 240.548 77.2743C243.391 78.9127 245.608 81.2258 247.198 84.2135C248.837 87.153 249.656 90.5985 249.656 94.55C249.656 94.8391 249.632 95.1765 249.583 95.562C249.583 95.9475 249.559 96.3089 249.511 96.6462H216.911V91.6587H245.897L243.078 93.3935C243.126 90.9358 242.62 88.7432 241.56 86.8157C240.5 84.8881 239.03 83.3943 237.151 82.3341C235.32 81.2258 233.175 80.6716 230.718 80.6716C228.308 80.6716 226.164 81.2258 224.284 82.3341C222.405 83.3943 220.935 84.9122 219.875 86.888C218.815 88.8155 218.285 91.0322 218.285 93.538V94.6946C218.285 97.2486 218.863 99.5376 220.02 101.562C221.224 103.537 222.887 105.079 225.007 106.188C227.127 107.296 229.561 107.85 232.308 107.85C234.573 107.85 236.621 107.465 238.452 106.694C240.331 105.923 241.97 104.766 243.367 103.224L247.198 107.706C245.463 109.73 243.295 111.272 240.693 112.332C238.139 113.392 235.271 113.922 232.091 113.922Z" fill="white"/>
<g clip-path="url(#clip0_1_127)">
<path d="M282.305 86.1709V84.163H280.297V86.1709H282.305ZM306.592 86.1709H308.6V84.163H306.592V86.1709ZM306.592 95.5677V97.5756H308.6V95.5677H306.592ZM282.305 95.5677H280.297V97.5756H282.305V95.5677ZM283.172 114V116.008H285.18V114H283.172ZM271.462 114H269.454V116.008H271.462V114ZM271.462 63.4016V61.3937H269.454V63.4016H271.462ZM309.7 63.4016H311.708V61.3937H309.7V63.4016ZM309.7 72.7984V74.8063H311.708V72.7984H309.7ZM283.172 72.7984V70.7905H281.164V72.7984H283.172ZM282.305 88.1787H306.592V84.163H282.305V88.1787ZM304.584 86.1709V95.5677H308.6V86.1709H304.584ZM306.592 93.5598H282.305V97.5756H306.592V93.5598ZM284.313 95.5677V86.1709H280.297V95.5677H284.313ZM283.172 111.992H271.462V116.008H283.172V111.992ZM273.47 114V63.4016H269.454V114H273.47ZM271.462 65.4094H309.7V61.3937H271.462V65.4094ZM307.692 63.4016V72.7984H311.708V63.4016H307.692ZM309.7 70.7905H283.172V74.8063H309.7V70.7905ZM281.164 72.7984V114H285.18V72.7984H281.164ZM323.649 112.699L322.751 114.495L322.758 114.498L322.765 114.502L323.649 112.699ZM317.794 106.989L316.025 107.938L316.029 107.945L316.033 107.952L317.794 106.989ZM315.698 75.1115V73.1036H313.69V75.1115H315.698ZM326.974 75.1115H328.982V73.1036H326.974V75.1115ZM328.998 102.579L327.487 103.901L327.509 103.927L327.532 103.951L328.998 102.579ZM339.479 103.736L340.428 105.506L340.452 105.493L340.476 105.479L339.479 103.736ZM342.66 100.266L344.456 101.164L344.461 101.153L344.467 101.142L342.66 100.266ZM343.816 75.1115V73.1036H341.808V75.1115H343.816ZM355.093 75.1115H357.1V73.1036H355.093V75.1115ZM355.093 114V116.008H357.1V114H355.093ZM344.395 114H342.387V116.008H344.395V114ZM344.395 103.302L346.095 102.234L342.387 96.3285V103.302H344.395ZM346.346 106.41L348.155 107.282L348.637 106.282L348.047 105.343L346.346 106.41ZM340.564 112.554L341.516 114.322L341.527 114.316L340.564 112.554ZM332.323 112.57C329.36 112.57 326.777 111.997 324.534 110.896L322.765 114.502C325.629 115.907 328.83 116.586 332.323 116.586V112.57ZM324.547 110.903C322.422 109.84 320.765 108.235 319.556 106.025L316.033 107.952C317.619 110.85 319.865 113.051 322.751 114.495L324.547 110.903ZM319.563 106.039C318.368 103.813 317.706 100.866 317.706 97.0857H313.69C313.69 101.305 314.425 104.959 316.025 107.938L319.563 106.039ZM317.706 97.0857V75.1115H313.69V97.0857H317.706ZM315.698 77.1194H326.974V73.1036H315.698V77.1194ZM324.966 75.1115V95.4231H328.982V75.1115H324.966ZM324.966 95.4231C324.966 98.8721 325.678 101.833 327.487 103.901L330.509 101.257C329.62 100.241 328.982 98.4315 328.982 95.4231H324.966ZM327.532 103.951C329.392 105.939 331.926 106.828 334.853 106.828V102.812C332.769 102.812 331.399 102.207 330.465 101.208L327.532 103.951ZM334.853 106.828C336.874 106.828 338.75 106.405 340.428 105.506L338.531 101.966C337.51 102.513 336.302 102.812 334.853 102.812V106.828ZM340.476 105.479C342.206 104.49 343.528 103.02 344.456 101.164L340.864 99.3682C340.25 100.596 339.451 101.439 338.483 101.992L340.476 105.479ZM344.467 101.142C345.407 99.2031 345.824 96.9064 345.824 94.3389H341.808C341.808 96.4939 341.455 98.1487 340.853 99.3902L344.467 101.142ZM345.824 94.3389V75.1115H341.808V94.3389H345.824ZM343.816 77.1194H355.093V73.1036H343.816V77.1194ZM353.085 75.1115V114H357.1V75.1115H353.085ZM355.093 111.992H344.395V116.008H355.093V111.992ZM346.402 114V103.302H342.387V114H346.402ZM342.694 104.37L344.646 107.478L348.047 105.343L346.095 102.234L342.694 104.37ZM344.538 105.538C343.413 107.871 341.775 109.603 339.6 110.793L341.527 114.316C344.46 112.711 346.678 110.346 348.155 107.282L344.538 105.538ZM339.612 110.786C337.413 111.97 334.996 112.57 332.323 112.57V116.586C335.626 116.586 338.702 115.837 341.516 114.322L339.612 110.786ZM370.744 111.109L369.381 112.583L369.388 112.59L369.396 112.597L370.744 111.109ZM366.913 66.5098V64.5019H364.905V66.5098H366.913ZM378.189 66.5098H380.197V64.5019H378.189V66.5098ZM379.49 104.314L378.032 105.695L378.051 105.715L378.07 105.734L379.49 104.314ZM387.586 104.169L389.461 103.453L388.499 100.933L386.361 102.578L387.586 104.169ZM390.622 112.121L391.782 113.759L393.053 112.859L392.497 111.404L390.622 112.121ZM386.429 114L386.902 115.951L386.923 115.946L386.943 115.941L386.429 114ZM360.913 84.6529H358.905V86.6608H360.913V84.6529ZM360.913 75.9789V73.971H358.905V75.9789H360.913ZM387.875 75.9789H389.883V73.971H387.875V75.9789ZM387.875 84.6529V86.6608H389.883V84.6529H387.875ZM381.442 112.57C377.195 112.57 374.169 111.502 372.091 109.62L369.396 112.597C372.426 115.342 376.532 116.586 381.442 116.586V112.57ZM372.107 109.634C370.087 107.767 368.92 104.887 368.92 100.628H364.905C364.905 105.62 366.292 109.728 369.381 112.583L372.107 109.634ZM368.92 100.628V66.5098H364.905V100.628H368.92ZM366.913 68.5176H378.189V64.5019H366.913V68.5176ZM376.181 66.5098V100.483H380.197V66.5098H376.181ZM376.181 100.483C376.181 102.476 376.716 104.305 378.032 105.695L380.948 102.933C380.529 102.492 380.197 101.767 380.197 100.483H376.181ZM378.07 105.734C379.393 107.057 381.129 107.623 383.032 107.623V103.607C381.947 103.607 381.321 103.306 380.91 102.894L378.07 105.734ZM383.032 107.623C385.198 107.623 387.162 107.029 388.81 105.761L386.361 102.578C385.504 103.238 384.432 103.607 383.032 103.607V107.623ZM385.71 104.886L388.746 112.837L392.497 111.404L389.461 103.453L385.71 104.886ZM389.461 110.482C388.534 111.138 387.366 111.675 385.915 112.059L386.943 115.941C388.769 115.458 390.396 114.741 391.782 113.759L389.461 110.482ZM385.956 112.049C384.53 112.394 383.027 112.57 381.442 112.57V116.586C383.326 116.586 385.148 116.377 386.902 115.951L385.956 112.049ZM362.921 84.6529V75.9789H358.905V84.6529H362.921ZM360.913 77.9868H387.875V73.971H360.913V77.9868ZM385.867 75.9789V84.6529H389.883V75.9789H385.867ZM387.875 82.645H360.913V86.6608H387.875V82.645ZM404.686 112.699L403.788 114.495L403.795 114.498L403.801 114.502L404.686 112.699ZM398.831 106.989L397.062 107.938L397.066 107.945L397.069 107.952L398.831 106.989ZM396.735 75.1115V73.1036H394.727V75.1115H396.735ZM408.011 75.1115H410.019V73.1036H408.011V75.1115ZM410.035 102.579L408.524 103.901L408.546 103.927L408.568 103.951L410.035 102.579ZM420.516 103.736L421.464 105.506L421.488 105.493L421.512 105.479L420.516 103.736ZM423.696 100.266L425.492 101.164L425.498 101.153L425.503 101.142L423.696 100.266ZM424.853 75.1115V73.1036H422.845V75.1115H424.853ZM436.129 75.1115H438.137V73.1036H436.129V75.1115ZM436.129 114V116.008H438.137V114H436.129ZM425.431 114H423.423V116.008H425.431V114ZM425.431 103.302L427.132 102.234L423.423 96.3285V103.302H425.431ZM427.383 106.41L429.191 107.282L429.673 106.282L429.083 105.343L427.383 106.41ZM421.6 112.554L422.552 114.322L422.564 114.316L421.6 112.554ZM413.36 112.57C410.396 112.57 407.814 111.997 405.57 110.896L403.801 114.502C406.666 115.907 409.866 116.586 413.36 116.586V112.57ZM405.584 110.903C403.459 109.84 401.802 108.235 400.592 106.025L397.069 107.952C398.655 110.85 400.901 113.051 403.788 114.495L405.584 110.903ZM400.6 106.039C399.405 103.813 398.742 100.866 398.742 97.0857H394.727C394.727 101.305 395.462 104.959 397.062 107.938L400.6 106.039ZM398.742 97.0857V75.1115H394.727V97.0857H398.742ZM396.735 77.1194H408.011V73.1036H396.735V77.1194ZM406.003 75.1115V95.4231H410.019V75.1115H406.003ZM406.003 95.4231C406.003 98.8721 406.714 101.833 408.524 103.901L411.546 101.257C410.657 100.241 410.019 98.4315 410.019 95.4231H406.003ZM408.568 103.951C410.429 105.939 412.963 106.828 415.89 106.828V102.812C413.805 102.812 412.436 102.207 411.501 101.208L408.568 103.951ZM415.89 106.828C417.911 106.828 419.786 106.405 421.464 105.506L419.568 101.966C418.547 102.513 417.338 102.812 415.89 102.812V106.828ZM421.512 105.479C423.243 104.49 424.564 103.02 425.492 101.164L421.9 99.3682C421.287 100.596 420.488 101.439 419.52 101.992L421.512 105.479ZM425.503 101.142C426.443 99.2031 426.861 96.9064 426.861 94.3389H422.845C422.845 96.4939 422.492 98.1487 421.89 99.3902L425.503 101.142ZM426.861 94.3389V75.1115H422.845V94.3389H426.861ZM424.853 77.1194H436.129V73.1036H424.853V77.1194ZM434.121 75.1115V114H438.137V75.1115H434.121ZM436.129 111.992H425.431V116.008H436.129V111.992ZM427.439 114V103.302H423.423V114H427.439ZM423.731 104.37L425.682 107.478L429.083 105.343L427.132 102.234L423.731 104.37ZM425.574 105.538C424.449 107.871 422.812 109.603 420.636 110.793L422.564 114.316C425.497 112.711 427.714 110.346 429.191 107.282L425.574 105.538ZM420.648 110.786C418.45 111.97 416.032 112.57 413.36 112.57V116.586C416.663 116.586 419.739 115.837 422.552 114.322L420.648 110.786ZM446.576 114H444.568V116.008H446.576V114ZM446.576 75.1115V73.1036H444.568V75.1115H446.576ZM457.346 75.1115H459.354V73.1036H457.346V75.1115ZM457.346 86.0986L455.534 86.9634L459.354 86.0986H457.346ZM455.828 82.9181L453.978 82.1389L453.628 82.9696L454.016 83.783L455.828 82.9181ZM461.394 76.7017L462.358 78.4632L462.37 78.4562L462.383 78.4491L461.394 76.7017ZM470.718 74.5332H472.726V72.5254H470.718V74.5332ZM470.718 84.942L470.519 86.94L472.726 87.1607V84.942H470.718ZM469.417 84.8698L469.168 86.8621L469.292 86.8776H469.417V84.8698ZM460.671 87.472L462.033 88.9474L462.034 88.9459L460.671 87.472ZM457.852 114V116.008H459.86V114H457.852ZM448.584 114V75.1115H444.568V114H448.584ZM446.576 77.1194H457.346V73.1036H446.576V77.1194ZM455.338 75.1115V86.0986H459.354V75.1115H455.338ZM459.158 85.2337L457.64 82.0533L454.016 83.783L455.534 86.9634L459.158 85.2337ZM457.679 83.6973C458.664 81.358 460.212 79.6373 462.358 78.4632L460.43 74.9403C457.468 76.5611 455.306 78.9847 453.978 82.1389L457.679 83.6973ZM462.383 78.4491C464.569 77.2116 467.318 76.5411 470.718 76.5411V72.5254C466.794 72.5254 463.327 73.3005 460.405 74.9544L462.383 78.4491ZM468.711 74.5332V84.942H472.726V74.5332H468.711ZM470.918 82.9441C470.386 82.8909 469.884 82.8619 469.417 82.8619V86.8776C469.722 86.8776 470.087 86.8968 470.519 86.94L470.918 82.9441ZM469.666 82.8774C469.189 82.8178 468.696 82.7896 468.189 82.7896V86.8054C468.548 86.8054 468.874 86.8254 469.168 86.8621L469.666 82.8774ZM468.189 82.7896C464.693 82.7896 461.67 83.8129 459.308 85.998L462.034 88.9459C463.527 87.5651 465.516 86.8054 468.189 86.8054V82.7896ZM459.309 85.9966C456.861 88.256 455.844 91.6252 455.844 95.64H459.86C459.86 92.2337 460.722 90.1576 462.033 88.9474L459.309 85.9966ZM455.844 95.64V114H459.86V95.64H455.844ZM457.852 111.992H446.576V116.008H457.852V111.992ZM484.731 111.976L483.802 113.756L483.812 113.762L484.731 111.976ZM476.996 104.892L475.277 105.929L475.281 105.935L475.284 105.942L476.996 104.892ZM476.924 84.2192L475.205 83.1821L475.2 83.1903L476.924 84.2192ZM484.369 77.1354L485.321 78.9033L485.332 78.8977L485.342 78.8919L484.369 77.1354ZM505.259 76.9909L504.306 78.7578L504.322 78.7668L504.339 78.7755L505.259 76.9909ZM512.56 83.9301L510.828 84.9469L510.836 84.959L512.56 83.9301ZM515.162 96.2183L517.162 96.4001L517.162 96.3925L517.163 96.385L515.162 96.2183ZM515.017 97.7362V99.7441H516.835L517.015 97.936L515.017 97.7362ZM483.43 97.7362H481.422V99.7441H483.43V97.7362ZM483.43 91.1584V89.1506H481.422V91.1584H483.43ZM509.09 91.1584L509.914 92.9894L509.09 89.1506V91.1584ZM504.753 93.1101H502.745V96.2154L505.577 94.9411L504.753 93.1101ZM503.524 87.8334L501.764 88.7988V88.7988L503.524 87.8334ZM500.127 84.3638L499.094 86.0855L499.115 86.0984L499.137 86.1107L500.127 84.3638ZM489.935 84.3638L490.925 86.1107L490.934 86.1055L490.943 86.1002L489.935 84.3638ZM486.538 87.9057L488.298 88.8711L488.305 88.8594L488.311 88.8477L486.538 87.9057ZM486.682 100.628L484.93 101.607L484.947 101.638L484.965 101.668L486.682 100.628ZM490.658 104.314L489.74 106.1L489.77 106.115L489.801 106.13L490.658 104.314ZM502.151 104.603L501.415 102.735L501.405 102.739L501.395 102.743L502.151 104.603ZM506.488 101.784L507.964 100.423L506.573 98.9147L505.095 100.338L506.488 101.784ZM512.488 108.29L513.994 109.617L515.191 108.259L513.964 106.928L512.488 108.29ZM505.765 112.988L506.499 114.857L506.514 114.851L506.528 114.845L505.765 112.988ZM496.441 112.57C492.273 112.57 488.694 111.756 485.649 110.19L483.812 113.762C487.514 115.665 491.742 116.586 496.441 116.586V112.57ZM485.659 110.196C482.633 108.617 480.336 106.499 478.708 103.843L475.284 105.942C477.319 109.261 480.178 111.865 483.802 113.756L485.659 110.196ZM478.716 103.855C477.09 101.159 476.257 98.0784 476.257 94.5557H472.242C472.242 98.7433 473.241 102.553 475.277 105.929L478.716 103.855ZM476.257 94.5557C476.257 90.9695 477.073 87.8881 478.648 85.2482L475.2 83.1903C473.209 86.5258 472.242 90.3354 472.242 94.5557H476.257ZM478.643 85.2563C480.288 82.5294 482.504 80.42 485.321 78.9033L483.417 75.3676C479.97 77.224 477.222 79.8372 475.205 83.1822L478.643 85.2563ZM485.342 78.8919C488.147 77.3386 491.348 76.5411 494.995 76.5411V72.5254C490.739 72.5254 486.856 73.4626 483.396 75.379L485.342 78.8919ZM494.995 76.5411C498.504 76.5411 501.592 77.2934 504.306 78.7578L506.213 75.2239C502.854 73.4114 499.1 72.5254 494.995 72.5254V76.5411ZM504.339 78.7755C507.08 80.189 509.235 82.2334 510.828 84.9469L514.291 82.9132C512.319 79.5549 509.606 76.9732 506.179 75.2063L504.339 78.7755ZM510.836 84.959C512.398 87.5774 513.226 90.7957 513.226 94.7003H517.242C517.242 90.22 516.287 86.2582 514.284 82.9011L510.836 84.959ZM513.226 94.7003C513.226 95.0634 513.206 95.5115 513.161 96.0515L517.163 96.385C517.214 95.7685 517.242 95.2046 517.242 94.7003H513.226ZM513.162 96.0365C513.115 96.5611 513.067 97.0611 513.02 97.5364L517.015 97.936C517.064 97.4476 517.113 96.9356 517.162 96.4001L513.162 96.0365ZM515.017 95.7283H483.43V99.7441H515.017V95.7283ZM485.437 97.7362V91.1584H481.422V97.7362H485.437ZM483.43 93.1663H509.09V89.1506H483.43V93.1663ZM508.266 89.3274L503.929 91.2791L505.577 94.9411L509.914 92.9894L508.266 89.3274ZM506.761 93.1101C506.761 90.8121 506.294 88.7087 505.285 86.8679L501.764 88.7988C502.393 89.9458 502.745 91.3602 502.745 93.1101H506.761ZM505.285 86.8679C504.291 85.0558 502.896 83.6248 501.117 82.6169L499.137 86.1107C500.25 86.7412 501.119 87.6232 501.764 88.7988L505.285 86.8679ZM501.16 82.642C499.36 81.5618 497.306 81.0548 495.067 81.0548V85.0705C496.684 85.0705 498.003 85.4309 499.094 86.0855L501.16 82.642ZM495.067 81.0548C492.828 81.0548 490.761 81.5622 488.927 82.6274L490.943 86.1002C492.097 85.4305 493.452 85.0705 495.067 85.0705V81.0548ZM488.945 82.6169C487.15 83.6342 485.753 85.1023 484.765 86.9637L488.311 88.8477C488.961 87.625 489.829 86.7318 490.925 86.1107L488.945 82.6169ZM484.777 86.9402C483.764 88.7876 483.301 90.9175 483.301 93.2546H487.317C487.317 91.4476 487.673 90.0115 488.298 88.8711L484.777 86.9402ZM483.301 93.2546V94.9894H487.317V93.2546H483.301ZM483.301 94.9894C483.301 97.4075 483.826 99.6321 484.93 101.607L488.435 99.6481C487.708 98.3461 487.317 96.812 487.317 94.9894H483.301ZM484.965 101.668C486.125 103.582 487.73 105.066 489.74 106.1L491.576 102.528C490.213 101.827 489.167 100.853 488.399 99.5869L484.965 101.668ZM489.801 106.13C491.853 107.099 494.18 107.551 496.73 107.551V103.535C494.653 103.535 492.933 103.168 491.515 102.498L489.801 106.13ZM496.73 107.551C499 107.551 501.074 107.208 502.907 106.463L501.395 102.743C500.144 103.251 498.604 103.535 496.73 103.535V107.551ZM502.887 106.471C504.735 105.743 506.401 104.655 507.881 103.23L505.095 100.338C503.973 101.419 502.747 102.21 501.415 102.735L502.887 106.471ZM505.012 103.145L511.012 109.651L513.964 106.928L507.964 100.423L505.012 103.145ZM510.981 106.962C509.418 108.736 507.439 110.13 505.002 111.131L506.528 114.845C509.488 113.63 511.991 111.891 513.994 109.617L510.981 106.962ZM505.031 111.119C502.61 112.07 499.759 112.57 496.441 112.57V116.586C500.158 116.586 503.523 116.026 506.499 114.857L505.031 111.119Z" fill="white"/>
</g>
<path d="M264.831 167.649C263.16 167.649 261.575 167.37 260.076 166.814C258.598 166.235 257.452 165.496 256.638 164.597L257.377 163.376C258.148 164.169 259.198 164.843 260.526 165.4C261.875 165.936 263.299 166.203 264.798 166.203C266.298 166.203 267.518 166.01 268.461 165.625C269.425 165.218 270.131 164.683 270.581 164.019C271.052 163.355 271.288 162.616 271.288 161.802C271.288 160.838 271.031 160.067 270.517 159.489C270.003 158.911 269.328 158.45 268.493 158.107C267.658 157.765 266.747 157.476 265.762 157.24C264.777 157.005 263.781 156.758 262.774 156.501C261.768 156.223 260.847 155.869 260.012 155.441C259.176 155.013 258.502 154.434 257.988 153.706C257.495 152.957 257.249 151.993 257.249 150.815C257.249 149.744 257.527 148.759 258.084 147.859C258.641 146.96 259.508 146.232 260.686 145.675C261.864 145.118 263.374 144.839 265.216 144.839C266.458 144.839 267.679 145.022 268.878 145.386C270.099 145.75 271.138 146.242 271.995 146.863L271.384 148.181C270.442 147.538 269.425 147.067 268.332 146.767C267.261 146.446 266.223 146.285 265.216 146.285C263.781 146.285 262.592 146.489 261.65 146.896C260.708 147.302 260.012 147.849 259.562 148.534C259.112 149.198 258.887 149.947 258.887 150.783C258.887 151.747 259.134 152.518 259.626 153.096C260.14 153.674 260.815 154.135 261.65 154.477C262.485 154.82 263.406 155.109 264.413 155.345C265.42 155.58 266.415 155.837 267.401 156.116C268.386 156.373 269.296 156.715 270.131 157.144C270.967 157.572 271.641 158.15 272.155 158.879C272.669 159.607 272.926 160.549 272.926 161.706C272.926 162.755 272.637 163.74 272.059 164.661C271.481 165.561 270.592 166.289 269.392 166.846C268.214 167.381 266.694 167.649 264.831 167.649ZM291.861 167.617C290.383 167.617 289.248 167.21 288.455 166.396C287.684 165.582 287.299 164.468 287.299 163.055V147.056H288.905V162.894C288.905 163.965 289.173 164.79 289.708 165.368C290.244 165.946 291.015 166.235 292.021 166.235C293.071 166.235 293.938 165.925 294.623 165.304L295.298 166.428C294.87 166.835 294.345 167.135 293.724 167.328C293.124 167.52 292.503 167.617 291.861 167.617ZM284.215 152.1V150.719H294.238V152.1H284.215ZM319.342 167.488V163.665L319.278 163.087V156.79C319.278 155.227 318.85 154.038 317.993 153.224C317.158 152.41 315.926 152.004 314.299 152.004C313.142 152.004 312.06 152.207 311.054 152.614C310.069 152.999 309.223 153.503 308.516 154.124L307.713 152.967C308.548 152.218 309.555 151.639 310.733 151.233C311.911 150.804 313.142 150.59 314.427 150.59C316.505 150.59 318.1 151.115 319.214 152.164C320.328 153.214 320.884 154.777 320.884 156.855V167.488H319.342ZM313.303 167.617C312.06 167.617 310.979 167.424 310.058 167.039C309.158 166.632 308.462 166.064 307.97 165.336C307.499 164.608 307.263 163.772 307.263 162.83C307.263 161.973 307.456 161.202 307.841 160.517C308.248 159.81 308.912 159.243 309.833 158.814C310.754 158.365 311.985 158.14 313.528 158.14H319.696V159.393H313.56C311.825 159.393 310.604 159.714 309.897 160.356C309.212 160.999 308.869 161.802 308.869 162.766C308.869 163.837 309.276 164.693 310.09 165.336C310.904 165.978 312.05 166.3 313.528 166.3C314.941 166.3 316.13 165.978 317.094 165.336C318.079 164.693 318.807 163.762 319.278 162.541L319.728 163.633C319.278 164.854 318.507 165.828 317.415 166.557C316.344 167.263 314.973 167.617 313.303 167.617ZM336.498 167.488V150.719H338.04V155.313L337.879 154.799C338.35 153.449 339.143 152.41 340.257 151.682C341.37 150.954 342.762 150.59 344.433 150.59V152.164C344.369 152.164 344.304 152.164 344.24 152.164C344.176 152.143 344.112 152.132 344.047 152.132C342.184 152.132 340.728 152.721 339.678 153.899C338.629 155.056 338.104 156.673 338.104 158.75V167.488H336.498ZM363.49 167.617C362.012 167.617 360.877 167.21 360.085 166.396C359.314 165.582 358.928 164.468 358.928 163.055V147.056H360.535V162.894C360.535 163.965 360.802 164.79 361.338 165.368C361.873 165.946 362.644 166.235 363.651 166.235C364.7 166.235 365.568 165.925 366.253 165.304L366.928 166.428C366.499 166.835 365.975 167.135 365.354 167.328C364.754 167.52 364.133 167.617 363.49 167.617ZM355.844 152.1V150.719H365.868V152.1H355.844ZM384.643 167.617C383.251 167.617 381.945 167.413 380.724 167.006C379.524 166.599 378.593 166.085 377.929 165.464L378.668 164.179C379.31 164.736 380.167 165.218 381.238 165.625C382.309 166.01 383.465 166.203 384.707 166.203C386.464 166.203 387.727 165.914 388.498 165.336C389.269 164.758 389.655 163.997 389.655 163.055C389.655 162.37 389.451 161.834 389.044 161.449C388.659 161.042 388.134 160.731 387.47 160.517C386.806 160.303 386.078 160.131 385.286 160.003C384.493 159.853 383.701 159.692 382.908 159.521C382.116 159.35 381.388 159.103 380.724 158.782C380.06 158.461 379.524 158.022 379.117 157.465C378.732 156.887 378.539 156.126 378.539 155.184C378.539 154.327 378.775 153.556 379.246 152.871C379.717 152.186 380.424 151.639 381.366 151.233C382.309 150.804 383.487 150.59 384.9 150.59C385.95 150.59 386.999 150.74 388.049 151.04C389.119 151.34 389.987 151.736 390.651 152.228L389.912 153.513C389.205 152.978 388.413 152.593 387.534 152.357C386.656 152.121 385.768 152.004 384.868 152.004C383.24 152.004 382.041 152.303 381.27 152.903C380.52 153.503 380.146 154.252 380.146 155.152C380.146 155.859 380.338 156.426 380.724 156.855C381.131 157.262 381.666 157.583 382.33 157.818C382.994 158.033 383.722 158.215 384.515 158.365C385.307 158.493 386.1 158.643 386.892 158.814C387.684 158.986 388.413 159.232 389.077 159.553C389.74 159.853 390.265 160.281 390.651 160.838C391.058 161.374 391.261 162.102 391.261 163.023C391.261 163.944 391.004 164.747 390.49 165.432C389.997 166.118 389.259 166.653 388.273 167.039C387.288 167.424 386.078 167.617 384.643 167.617ZM422.5 167.488V145H423.881L439.912 165.464H439.173V145H440.811V167.488H439.462L423.399 147.024H424.138V167.488H422.5ZM463.7 167.617C462.093 167.617 460.658 167.253 459.395 166.525C458.153 165.796 457.157 164.79 456.407 163.505C455.679 162.22 455.315 160.753 455.315 159.103C455.315 157.433 455.679 155.966 456.407 154.702C457.157 153.417 458.153 152.41 459.395 151.682C460.658 150.954 462.093 150.59 463.7 150.59C465.306 150.59 466.741 150.954 468.005 151.682C469.268 152.41 470.264 153.417 470.992 154.702C471.72 155.966 472.085 157.433 472.085 159.103C472.085 160.753 471.72 162.22 470.992 163.505C470.264 164.79 469.268 165.796 468.005 166.525C466.741 167.253 465.306 167.617 463.7 167.617ZM463.7 166.171C464.985 166.171 466.141 165.882 467.169 165.304C468.197 164.704 469 163.869 469.579 162.798C470.157 161.727 470.446 160.496 470.446 159.103C470.446 157.69 470.157 156.458 469.579 155.409C469 154.338 468.197 153.513 467.169 152.935C466.141 152.336 464.985 152.036 463.7 152.036C462.415 152.036 461.258 152.336 460.23 152.935C459.223 153.513 458.42 154.338 457.821 155.409C457.242 156.458 456.953 157.69 456.953 159.103C456.953 160.496 457.242 161.727 457.821 162.798C458.42 163.869 459.223 164.704 460.23 165.304C461.258 165.882 462.415 166.171 463.7 166.171ZM488.869 167.488L482.508 150.719H484.05L489.962 166.589H489.287L495.359 150.719H496.74L502.78 166.589H502.073L508.081 150.719H509.559L503.198 167.488H501.688L495.776 152.261H496.29L490.347 167.488H488.869Z" fill="white"/>
<defs>
<clipPath id="clip0_1_127">
<rect width="294" height="88" fill="white" transform="translate(265 52)"/>
</clipPath>
</defs>
</svg>
