<svg width="254" height="24" viewBox="0 0 254 24" fill="none" xmlns="http://www.w3.org/2000/svg">
<path d="M8.83055 23.6489C7.16 23.6489 5.57512 23.3705 4.07591 22.8136C2.59811 22.2354 1.45228 21.4965 0.638425 20.5969L1.37732 19.3762C2.14835 20.1686 3.1978 20.8432 4.52567 21.4001C5.87496 21.9355 7.29921 22.2032 8.79843 22.2032C10.2976 22.2032 11.5184 22.0105 12.4608 21.625C13.4246 21.218 14.1313 20.6826 14.5811 20.0187C15.0523 19.3547 15.2879 18.6158 15.2879 17.802C15.2879 16.8382 15.0309 16.0672 14.5169 15.4889C14.0028 14.9106 13.3282 14.4502 12.4929 14.1075C11.6576 13.7648 10.7474 13.4757 9.7622 13.2401C8.77701 13.0045 7.7811 12.7582 6.77449 12.5012C5.76787 12.2228 4.84693 11.8694 4.01165 11.441C3.17638 11.0127 2.50173 10.4344 1.98772 9.70623C1.49512 8.95663 1.24882 7.99285 1.24882 6.81489C1.24882 5.74403 1.52724 4.75883 2.08409 3.8593C2.64095 2.95978 3.50835 2.23159 4.6863 1.67474C5.86425 1.11789 7.37417 0.839461 9.21606 0.839461C10.4583 0.839461 11.6791 1.02151 12.8784 1.3856C14.0992 1.7497 15.138 2.2423 15.9946 2.8634L15.3843 4.18056C14.4419 3.53804 13.4246 3.06686 12.3323 2.76702C11.2614 2.44576 10.2227 2.28513 9.21606 2.28513C7.7811 2.28513 6.59244 2.4886 5.65008 2.89552C4.70772 3.30245 4.01165 3.8486 3.56189 4.53395C3.11213 5.19789 2.88724 5.94749 2.88724 6.78277C2.88724 7.74655 3.13354 8.51757 3.62614 9.09584C4.14016 9.67411 4.8148 10.1346 5.65008 10.4773C6.48535 10.8199 7.4063 11.1091 8.41291 11.3447C9.41953 11.5802 10.4154 11.8373 11.4006 12.1157C12.3858 12.3727 13.2961 12.7154 14.1313 13.1437C14.9666 13.5721 15.6413 14.1503 16.1553 14.8785C16.6693 15.6067 16.9263 16.5491 16.9263 17.7056C16.9263 18.7551 16.6372 19.7402 16.0589 20.6612C15.4806 21.5607 14.5918 22.2889 13.3924 22.8458C12.2145 23.3812 10.6939 23.6489 8.83055 23.6489ZM35.8606 23.6168C34.3828 23.6168 33.2476 23.2099 32.4552 22.396C31.6842 21.5821 31.2987 20.4684 31.2987 19.0549V3.05615H32.905V18.8943C32.905 19.9651 33.1727 20.7897 33.7081 21.368C34.2435 21.9462 35.0146 22.2354 36.0212 22.2354C37.0706 22.2354 37.938 21.9248 38.6234 21.3037L39.298 22.4281C38.8697 22.8351 38.345 23.1349 37.7239 23.3277C37.1242 23.5204 36.5031 23.6168 35.8606 23.6168ZM28.2146 8.09993V6.71852H38.2379V8.09993H28.2146ZM63.3423 23.4883V19.6653L63.2781 19.087V12.7903C63.2781 11.2269 62.8497 10.0382 61.993 9.22434C61.1578 8.41049 59.9263 8.00356 58.2985 8.00356C57.142 8.00356 56.0604 8.20702 55.0538 8.61395C54.0686 8.99946 53.2226 9.50277 52.5159 10.1239L51.7127 8.96734C52.548 8.21773 53.5546 7.63946 54.7326 7.23253C55.9105 6.80419 57.142 6.59001 58.427 6.59001C60.5045 6.59001 62.1001 7.11474 63.2138 8.16419C64.3275 9.21363 64.8844 10.7771 64.8844 12.8546V23.4883H63.3423ZM57.3026 23.6168C56.0604 23.6168 54.9789 23.424 54.0579 23.0385C53.1584 22.6316 52.4623 22.064 51.9697 21.3358C51.4985 20.6077 51.263 19.7724 51.263 18.83C51.263 17.9733 51.4557 17.2023 51.8412 16.5169C52.2481 15.8102 52.9121 15.2426 53.833 14.8143C54.754 14.3645 55.9855 14.1396 57.5275 14.1396H63.6957V15.3925H57.5596C55.8248 15.3925 54.6041 15.7138 53.8973 16.3563C53.2119 16.9988 52.8693 17.802 52.8693 18.7658C52.8693 19.8366 53.2762 20.6933 54.09 21.3358C54.9039 21.9784 56.0497 22.2996 57.5275 22.2996C58.9411 22.2996 60.1297 21.9784 61.0935 21.3358C62.0787 20.6933 62.8069 19.7617 63.2781 18.5409L63.7278 19.6332C63.2781 20.854 62.507 21.8284 61.4148 22.5566C60.3439 23.2634 58.9732 23.6168 57.3026 23.6168ZM80.4978 23.4883V6.71852H82.0399V11.3125L81.8793 10.7985C82.3504 9.44923 83.1429 8.41049 84.2566 7.6823C85.3703 6.95411 86.7624 6.59001 88.433 6.59001V8.16419C88.3687 8.16419 88.3045 8.16419 88.2402 8.16419C88.176 8.14277 88.1117 8.13206 88.0475 8.13206C86.1841 8.13206 84.7278 8.72104 83.6783 9.89899C82.6289 11.0555 82.1041 12.6725 82.1041 14.75V23.4883H80.4978ZM107.49 23.6168C106.012 23.6168 104.877 23.2099 104.085 22.396C103.314 21.5821 102.928 20.4684 102.928 19.0549V3.05615H104.535V18.8943C104.535 19.9651 104.802 20.7897 105.338 21.368C105.873 21.9462 106.644 22.2354 107.651 22.2354C108.7 22.2354 109.568 21.9248 110.253 21.3037L110.928 22.4281C110.499 22.8351 109.975 23.1349 109.354 23.3277C108.754 23.5204 108.133 23.6168 107.49 23.6168ZM99.8442 8.09993V6.71852H109.868V8.09993H99.8442ZM128.643 23.6168C127.251 23.6168 125.945 23.4133 124.724 23.0064C123.524 22.5995 122.593 22.0854 121.929 21.4643L122.668 20.1793C123.31 20.7362 124.167 21.218 125.238 21.625C126.309 22.0105 127.465 22.2032 128.707 22.2032C130.464 22.2032 131.727 21.9141 132.498 21.3358C133.269 20.7576 133.655 19.9973 133.655 19.0549C133.655 18.3695 133.451 17.8341 133.044 17.4486C132.659 17.0417 132.134 16.7311 131.47 16.5169C130.806 16.3028 130.078 16.1314 129.286 16.0029C128.493 15.853 127.701 15.6924 126.908 15.521C126.116 15.3497 125.388 15.1034 124.724 14.7821C124.06 14.4609 123.524 14.0218 123.117 13.465C122.732 12.8867 122.539 12.1264 122.539 11.184C122.539 10.3273 122.775 9.55631 123.246 8.87096C123.717 8.1856 124.424 7.63946 125.366 7.23253C126.309 6.80419 127.487 6.59001 128.9 6.59001C129.95 6.59001 130.999 6.73993 132.049 7.03978C133.119 7.33962 133.987 7.73584 134.651 8.22844L133.912 9.51348C133.205 8.97804 132.413 8.59253 131.534 8.35694C130.656 8.12135 129.768 8.00356 128.868 8.00356C127.24 8.00356 126.041 8.3034 125.27 8.90308C124.52 9.50277 124.146 10.2524 124.146 11.1519C124.146 11.8587 124.338 12.4262 124.724 12.8546C125.131 13.2615 125.666 13.5828 126.33 13.8184C126.994 14.0325 127.722 14.2146 128.515 14.3645C129.307 14.493 130.1 14.6429 130.892 14.8143C131.684 14.9856 132.413 15.2319 133.077 15.5532C133.74 15.853 134.265 16.2814 134.651 16.8382C135.058 17.3736 135.261 18.1018 135.261 19.0228C135.261 19.9437 135.004 20.7469 134.49 21.4322C133.997 22.1176 133.259 22.653 132.273 23.0385C131.288 23.424 130.078 23.6168 128.643 23.6168ZM166.5 23.4883V1.00009H167.881L183.912 21.4643H183.173V1.00009H184.811V23.4883H183.462L167.399 3.02403H168.138V23.4883H166.5ZM207.7 23.6168C206.093 23.6168 204.658 23.2527 203.395 22.5245C202.153 21.7963 201.157 20.7897 200.407 19.5047C199.679 18.2196 199.315 16.7525 199.315 15.1034C199.315 13.4328 199.679 11.9658 200.407 10.7021C201.157 9.4171 202.153 8.41049 203.395 7.6823C204.658 6.95411 206.093 6.59001 207.7 6.59001C209.306 6.59001 210.741 6.95411 212.005 7.6823C213.268 8.41049 214.264 9.4171 214.992 10.7021C215.72 11.9658 216.085 13.4328 216.085 15.1034C216.085 16.7525 215.72 18.2196 214.992 19.5047C214.264 20.7897 213.268 21.7963 212.005 22.5245C210.741 23.2527 209.306 23.6168 207.7 23.6168ZM207.7 22.1711C208.985 22.1711 210.141 21.882 211.169 21.3037C212.197 20.704 213 19.8688 213.579 18.7979C214.157 17.727 214.446 16.4955 214.446 15.1034C214.446 13.6899 214.157 12.4584 213.579 11.4089C213 10.338 212.197 9.51348 211.169 8.93521C210.141 8.33552 208.985 8.03568 207.7 8.03568C206.415 8.03568 205.258 8.33552 204.23 8.93521C203.223 9.51348 202.42 10.338 201.821 11.4089C201.242 12.4584 200.953 13.6899 200.953 15.1034C200.953 16.4955 201.242 17.727 201.821 18.7979C202.42 19.8688 203.223 20.704 204.23 21.3037C205.258 21.882 206.415 22.1711 207.7 22.1711ZM232.869 23.4883L226.508 6.71852H228.05L233.962 22.5888H233.287L239.359 6.71852H240.74L246.78 22.5888H246.073L252.081 6.71852H253.559L247.198 23.4883H245.688L239.776 8.26056H240.29L234.347 23.4883H232.869Z" fill="white"/>
</svg>
