<svg width="950" height="23" viewBox="0 0 950 23" fill="none" xmlns="http://www.w3.org/2000/svg">
<path d="M0.736 18V1.2H2.2L13.792 15.792H13.024V1.2H14.776V18H13.312L1.744 3.408H2.512V18H0.736ZM25.0354 18.12C23.8194 18.12 22.7234 17.848 21.7474 17.304C20.7874 16.744 20.0274 15.984 19.4674 15.024C18.9074 14.048 18.6274 12.936 18.6274 11.688C18.6274 10.424 18.9074 9.312 19.4674 8.352C20.0274 7.392 20.7874 6.64 21.7474 6.096C22.7074 5.552 23.8034 5.28 25.0354 5.28C26.2834 5.28 27.3874 5.552 28.3474 6.096C29.3234 6.64 30.0834 7.392 30.6274 8.352C31.1874 9.312 31.4674 10.424 31.4674 11.688C31.4674 12.936 31.1874 14.048 30.6274 15.024C30.0834 15.984 29.3234 16.744 28.3474 17.304C27.3714 17.848 26.2674 18.12 25.0354 18.12ZM25.0354 16.608C25.9474 16.608 26.7554 16.408 27.4594 16.008C28.1634 15.592 28.7154 15.016 29.1154 14.28C29.5314 13.528 29.7394 12.664 29.7394 11.688C29.7394 10.696 29.5314 9.832 29.1154 9.096C28.7154 8.36 28.1634 7.792 27.4594 7.392C26.7554 6.976 25.9554 6.768 25.0594 6.768C24.1634 6.768 23.3634 6.976 22.6594 7.392C21.9554 7.792 21.3954 8.36 20.9794 9.096C20.5634 9.832 20.3554 10.696 20.3554 11.688C20.3554 12.664 20.5634 13.528 20.9794 14.28C21.3954 15.016 21.9554 15.592 22.6594 16.008C23.3634 16.408 24.1554 16.608 25.0354 16.608ZM41.5876 18V1.2H47.8756C49.2996 1.2 50.5236 1.432 51.5476 1.896C52.5716 2.344 53.3556 3 53.8996 3.864C54.4596 4.712 54.7396 5.744 54.7396 6.96C54.7396 8.144 54.4596 9.168 53.8996 10.032C53.3556 10.88 52.5716 11.536 51.5476 12C50.5236 12.464 49.2996 12.696 47.8756 12.696H42.5716L43.3636 11.856V18H41.5876ZM43.3636 12L42.5716 11.136H47.8276C49.5076 11.136 50.7796 10.776 51.6436 10.056C52.5236 9.32 52.9636 8.288 52.9636 6.96C52.9636 5.616 52.5236 4.576 51.6436 3.84C50.7796 3.104 49.5076 2.736 47.8276 2.736H42.5716L43.3636 1.896V12ZM57.8916 18V5.4H59.5236V8.832L59.3556 8.232C59.7076 7.272 60.2996 6.544 61.1316 6.048C61.9636 5.536 62.9956 5.28 64.2276 5.28V6.936C64.1636 6.936 64.0996 6.936 64.0356 6.936C63.9716 6.92 63.9076 6.912 63.8436 6.912C62.5156 6.912 61.4756 7.32 60.7236 8.136C59.9716 8.936 59.5956 10.08 59.5956 11.568V18H57.8916ZM72.3558 18.12C71.1398 18.12 70.0438 17.848 69.0678 17.304C68.1078 16.744 67.3478 15.984 66.7878 15.024C66.2278 14.048 65.9478 12.936 65.9478 11.688C65.9478 10.424 66.2278 9.312 66.7878 8.352C67.3478 7.392 68.1078 6.64 69.0678 6.096C70.0278 5.552 71.1238 5.28 72.3558 5.28C73.6038 5.28 74.7078 5.552 75.6678 6.096C76.6438 6.64 77.4038 7.392 77.9478 8.352C78.5078 9.312 78.7878 10.424 78.7878 11.688C78.7878 12.936 78.5078 14.048 77.9478 15.024C77.4038 15.984 76.6438 16.744 75.6678 17.304C74.6918 17.848 73.5878 18.12 72.3558 18.12ZM72.3558 16.608C73.2678 16.608 74.0758 16.408 74.7798 16.008C75.4838 15.592 76.0358 15.016 76.4358 14.28C76.8518 13.528 77.0598 12.664 77.0598 11.688C77.0598 10.696 76.8518 9.832 76.4358 9.096C76.0358 8.36 75.4838 7.792 74.7798 7.392C74.0758 6.976 73.2758 6.768 72.3798 6.768C71.4838 6.768 70.6838 6.976 69.9798 7.392C69.2758 7.792 68.7158 8.36 68.2998 9.096C67.8838 9.832 67.6758 10.696 67.6758 11.688C67.6758 12.664 67.8838 13.528 68.2998 14.28C68.7158 15.016 69.2758 15.592 69.9798 16.008C70.6838 16.408 71.4758 16.608 72.3558 16.608ZM88.7706 18.12C87.6666 18.12 86.6746 17.872 85.7946 17.376C84.9146 16.864 84.2186 16.128 83.7066 15.168C83.1946 14.208 82.9386 13.048 82.9386 11.688C82.9386 10.312 83.1946 9.152 83.7066 8.208C84.2346 7.248 84.9386 6.52 85.8186 6.024C86.6986 5.528 87.6826 5.28 88.7706 5.28C89.9706 5.28 91.0426 5.552 91.9866 6.096C92.9466 6.624 93.6986 7.368 94.2426 8.328C94.7866 9.288 95.0586 10.408 95.0586 11.688C95.0586 12.952 94.7866 14.072 94.2426 15.048C93.6986 16.008 92.9466 16.76 91.9866 17.304C91.0426 17.848 89.9706 18.12 88.7706 18.12ZM82.2666 18V0.191999H83.9706V9.12L83.7306 11.664L83.8986 14.208V18H82.2666ZM88.6506 16.608C89.5466 16.608 90.3466 16.408 91.0506 16.008C91.7546 15.592 92.3146 15.016 92.7306 14.28C93.1466 13.528 93.3546 12.664 93.3546 11.688C93.3546 10.696 93.1466 9.832 92.7306 9.096C92.3146 8.36 91.7546 7.792 91.0506 7.392C90.3466 6.976 89.5466 6.768 88.6506 6.768C87.7546 6.768 86.9466 6.976 86.2266 7.392C85.5226 7.792 84.9626 8.36 84.5466 9.096C84.1466 9.832 83.9466 10.696 83.9466 11.688C83.9466 12.664 84.1466 13.528 84.5466 14.28C84.9626 15.016 85.5226 15.592 86.2266 16.008C86.9466 16.408 87.7546 16.608 88.6506 16.608ZM98.5323 18V0.191999H100.236V18H98.5323ZM110.33 18.12C109.018 18.12 107.866 17.848 106.874 17.304C105.882 16.744 105.106 15.984 104.546 15.024C103.986 14.048 103.706 12.936 103.706 11.688C103.706 10.44 103.97 9.336 104.498 8.376C105.042 7.416 105.778 6.664 106.706 6.12C107.65 5.56 108.706 5.28 109.874 5.28C111.058 5.28 112.106 5.552 113.018 6.096C113.946 6.624 114.674 7.376 115.202 8.352C115.73 9.312 115.994 10.424 115.994 11.688C115.994 11.768 115.986 11.856 115.97 11.952C115.97 12.032 115.97 12.12 115.97 12.216H105.002V10.944H115.058L114.386 11.448C114.386 10.536 114.186 9.728 113.786 9.024C113.402 8.304 112.874 7.744 112.202 7.344C111.53 6.944 110.754 6.744 109.874 6.744C109.01 6.744 108.234 6.944 107.546 7.344C106.858 7.744 106.322 8.304 105.938 9.024C105.554 9.744 105.362 10.568 105.362 11.496V11.76C105.362 12.72 105.57 13.568 105.986 14.304C106.418 15.024 107.01 15.592 107.762 16.008C108.53 16.408 109.402 16.608 110.378 16.608C111.146 16.608 111.858 16.472 112.514 16.2C113.186 15.928 113.762 15.512 114.242 14.952L115.202 16.056C114.642 16.728 113.938 17.24 113.09 17.592C112.258 17.944 111.338 18.12 110.33 18.12ZM135.206 5.28C136.23 5.28 137.118 5.48 137.87 5.88C138.638 6.264 139.23 6.856 139.646 7.656C140.078 8.456 140.294 9.464 140.294 10.68V18H138.59V10.848C138.59 9.52 138.27 8.52 137.63 7.848C137.006 7.16 136.118 6.816 134.966 6.816C134.102 6.816 133.35 7 132.71 7.368C132.086 7.72 131.598 8.24 131.246 8.928C130.91 9.6 130.742 10.416 130.742 11.376V18H129.038V10.848C129.038 9.52 128.718 8.52 128.078 7.848C127.438 7.16 126.542 6.816 125.39 6.816C124.542 6.816 123.798 7 123.158 7.368C122.518 7.72 122.022 8.24 121.67 8.928C121.334 9.6 121.166 10.416 121.166 11.376V18H119.462V5.4H121.094V8.808L120.83 8.208C121.214 7.296 121.83 6.584 122.678 6.072C123.542 5.544 124.558 5.28 125.726 5.28C126.958 5.28 128.006 5.592 128.87 6.216C129.734 6.824 130.294 7.744 130.55 8.976L129.878 8.712C130.246 7.688 130.894 6.864 131.822 6.24C132.766 5.6 133.894 5.28 135.206 5.28ZM151.556 18V1.2H153.332V18H151.556ZM161.823 18.12C160.783 18.12 159.799 17.976 158.871 17.688C157.943 17.384 157.215 17.008 156.687 16.56L157.455 15.216C157.967 15.6 158.623 15.936 159.423 16.224C160.223 16.496 161.063 16.632 161.943 16.632C163.143 16.632 164.007 16.448 164.535 16.08C165.063 15.696 165.327 15.192 165.327 14.568C165.327 14.104 165.175 13.744 164.871 13.488C164.583 13.216 164.199 13.016 163.719 12.888C163.239 12.744 162.703 12.624 162.111 12.528C161.519 12.432 160.927 12.32 160.335 12.192C159.759 12.064 159.231 11.88 158.751 11.64C158.271 11.384 157.879 11.04 157.575 10.608C157.287 10.176 157.143 9.6 157.143 8.88C157.143 8.192 157.335 7.576 157.719 7.032C158.103 6.488 158.663 6.064 159.399 5.76C160.151 5.44 161.063 5.28 162.135 5.28C162.951 5.28 163.767 5.392 164.583 5.616C165.399 5.824 166.071 6.104 166.599 6.456L165.855 7.824C165.295 7.44 164.695 7.168 164.055 7.008C163.415 6.832 162.775 6.744 162.135 6.744C160.999 6.744 160.159 6.944 159.615 7.344C159.087 7.728 158.823 8.224 158.823 8.832C158.823 9.312 158.967 9.688 159.255 9.96C159.559 10.232 159.951 10.448 160.431 10.608C160.927 10.752 161.463 10.872 162.039 10.968C162.631 11.064 163.215 11.184 163.791 11.328C164.383 11.456 164.919 11.64 165.399 11.88C165.895 12.104 166.287 12.432 166.575 12.864C166.879 13.28 167.031 13.832 167.031 14.52C167.031 15.256 166.823 15.896 166.407 16.44C166.007 16.968 165.415 17.384 164.631 17.688C163.863 17.976 162.927 18.12 161.823 18.12ZM180.062 18V2.736H174.159V1.2H187.743V2.736H181.839V18H180.062ZM194.043 18.12C192.827 18.12 191.731 17.848 190.755 17.304C189.795 16.744 189.035 15.984 188.475 15.024C187.915 14.048 187.635 12.936 187.635 11.688C187.635 10.424 187.915 9.312 188.475 8.352C189.035 7.392 189.795 6.64 190.755 6.096C191.715 5.552 192.811 5.28 194.043 5.28C195.291 5.28 196.395 5.552 197.355 6.096C198.331 6.64 199.091 7.392 199.635 8.352C200.195 9.312 200.475 10.424 200.475 11.688C200.475 12.936 200.195 14.048 199.635 15.024C199.091 15.984 198.331 16.744 197.355 17.304C196.379 17.848 195.275 18.12 194.043 18.12ZM194.043 16.608C194.955 16.608 195.763 16.408 196.467 16.008C197.171 15.592 197.723 15.016 198.123 14.28C198.539 13.528 198.747 12.664 198.747 11.688C198.747 10.696 198.539 9.832 198.123 9.096C197.723 8.36 197.171 7.792 196.467 7.392C195.763 6.976 194.963 6.768 194.067 6.768C193.171 6.768 192.371 6.976 191.667 7.392C190.963 7.792 190.403 8.36 189.987 9.096C189.571 9.832 189.363 10.696 189.363 11.688C189.363 12.664 189.571 13.528 189.987 14.28C190.403 15.016 190.963 15.592 191.667 16.008C192.371 16.408 193.163 16.608 194.043 16.608ZM209.09 18.12C207.874 18.12 206.778 17.848 205.802 17.304C204.842 16.744 204.082 15.984 203.522 15.024C202.962 14.048 202.682 12.936 202.682 11.688C202.682 10.424 202.962 9.312 203.522 8.352C204.082 7.392 204.842 6.64 205.802 6.096C206.762 5.552 207.858 5.28 209.09 5.28C210.338 5.28 211.442 5.552 212.402 6.096C213.378 6.64 214.138 7.392 214.682 8.352C215.242 9.312 215.522 10.424 215.522 11.688C215.522 12.936 215.242 14.048 214.682 15.024C214.138 15.984 213.378 16.744 212.402 17.304C211.426 17.848 210.322 18.12 209.09 18.12ZM209.09 16.608C210.002 16.608 210.81 16.408 211.514 16.008C212.218 15.592 212.77 15.016 213.17 14.28C213.586 13.528 213.794 12.664 213.794 11.688C213.794 10.696 213.586 9.832 213.17 9.096C212.77 8.36 212.218 7.792 211.514 7.392C210.81 6.976 210.01 6.768 209.114 6.768C208.218 6.768 207.418 6.976 206.714 7.392C206.01 7.792 205.45 8.36 205.034 9.096C204.618 9.832 204.41 10.696 204.41 11.688C204.41 12.664 204.618 13.528 205.034 14.28C205.45 15.016 206.01 15.592 206.714 16.008C207.418 16.408 208.21 16.608 209.09 16.608ZM237.93 1.2H239.682V18H237.93V1.2ZM227.418 18H225.642V1.2H227.418V18ZM238.098 10.248H227.226V8.688H238.098V10.248ZM252.702 18V15.216L252.63 14.76V10.104C252.63 9.032 252.326 8.208 251.718 7.632C251.126 7.056 250.238 6.768 249.054 6.768C248.238 6.768 247.462 6.904 246.726 7.176C245.99 7.448 245.366 7.808 244.854 8.256L244.086 6.984C244.726 6.44 245.494 6.024 246.39 5.736C247.286 5.432 248.23 5.28 249.222 5.28C250.854 5.28 252.11 5.688 252.99 6.504C253.886 7.304 254.334 8.528 254.334 10.176V18H252.702ZM248.358 18.12C247.414 18.12 246.59 17.968 245.886 17.664C245.198 17.344 244.67 16.912 244.302 16.368C243.934 15.808 243.75 15.168 243.75 14.448C243.75 13.792 243.902 13.2 244.206 12.672C244.526 12.128 245.038 11.696 245.742 11.376C246.462 11.04 247.422 10.872 248.622 10.872H252.966V12.144H248.67C247.454 12.144 246.606 12.36 246.126 12.792C245.662 13.224 245.43 13.76 245.43 14.4C245.43 15.12 245.71 15.696 246.27 16.128C246.83 16.56 247.614 16.776 248.622 16.776C249.582 16.776 250.406 16.56 251.094 16.128C251.798 15.68 252.31 15.04 252.63 14.208L253.014 15.384C252.694 16.216 252.134 16.88 251.334 17.376C250.55 17.872 249.558 18.12 248.358 18.12ZM258.962 18V5.4H260.594V8.832L260.426 8.232C260.778 7.272 261.37 6.544 262.202 6.048C263.034 5.536 264.066 5.28 265.298 5.28V6.936C265.234 6.936 265.17 6.936 265.106 6.936C265.042 6.92 264.978 6.912 264.914 6.912C263.586 6.912 262.546 7.32 261.794 8.136C261.042 8.936 260.666 10.08 260.666 11.568V18H258.962ZM273.306 18.12C272.106 18.12 271.026 17.848 270.066 17.304C269.122 16.76 268.378 16.008 267.834 15.048C267.29 14.072 267.018 12.952 267.018 11.688C267.018 10.408 267.29 9.288 267.834 8.328C268.378 7.368 269.122 6.624 270.066 6.096C271.026 5.552 272.106 5.28 273.306 5.28C274.41 5.28 275.394 5.528 276.258 6.024C277.138 6.52 277.834 7.248 278.346 8.208C278.874 9.152 279.138 10.312 279.138 11.688C279.138 13.048 278.882 14.208 278.37 15.168C277.858 16.128 277.162 16.864 276.282 17.376C275.418 17.872 274.426 18.12 273.306 18.12ZM273.426 16.608C274.322 16.608 275.122 16.408 275.826 16.008C276.546 15.592 277.106 15.016 277.506 14.28C277.922 13.528 278.13 12.664 278.13 11.688C278.13 10.696 277.922 9.832 277.506 9.096C277.106 8.36 276.546 7.792 275.826 7.392C275.122 6.976 274.322 6.768 273.426 6.768C272.546 6.768 271.754 6.976 271.05 7.392C270.346 7.792 269.786 8.36 269.37 9.096C268.954 9.832 268.746 10.696 268.746 11.688C268.746 12.664 268.954 13.528 269.37 14.28C269.786 15.016 270.346 15.592 271.05 16.008C271.754 16.408 272.546 16.608 273.426 16.608ZM278.178 18V14.208L278.346 11.664L278.106 9.12V0.191999H279.81V18H278.178ZM294.461 18V2.736H288.557V1.2H302.141V2.736H296.237V18H294.461ZM308.442 18.12C307.226 18.12 306.13 17.848 305.154 17.304C304.194 16.744 303.434 15.984 302.874 15.024C302.314 14.048 302.034 12.936 302.034 11.688C302.034 10.424 302.314 9.312 302.874 8.352C303.434 7.392 304.194 6.64 305.154 6.096C306.114 5.552 307.21 5.28 308.442 5.28C309.69 5.28 310.794 5.552 311.754 6.096C312.73 6.64 313.49 7.392 314.034 8.352C314.594 9.312 314.874 10.424 314.874 11.688C314.874 12.936 314.594 14.048 314.034 15.024C313.49 15.984 312.73 16.744 311.754 17.304C310.778 17.848 309.674 18.12 308.442 18.12ZM308.442 16.608C309.354 16.608 310.162 16.408 310.866 16.008C311.57 15.592 312.122 15.016 312.522 14.28C312.938 13.528 313.146 12.664 313.146 11.688C313.146 10.696 312.938 9.832 312.522 9.096C312.122 8.36 311.57 7.792 310.866 7.392C310.162 6.976 309.362 6.768 308.466 6.768C307.57 6.768 306.77 6.976 306.066 7.392C305.362 7.792 304.802 8.36 304.386 9.096C303.97 9.832 303.762 10.696 303.762 11.688C303.762 12.664 303.97 13.528 304.386 14.28C304.802 15.016 305.362 15.592 306.066 16.008C306.77 16.408 307.562 16.608 308.442 16.608ZM337.282 1.2H339.034V18H337.282V1.2ZM326.77 18H324.994V1.2H326.77V18ZM337.45 10.248H326.578V8.688H337.45V10.248ZM352.053 18V15.216L351.981 14.76V10.104C351.981 9.032 351.677 8.208 351.069 7.632C350.477 7.056 349.589 6.768 348.405 6.768C347.589 6.768 346.813 6.904 346.077 7.176C345.341 7.448 344.717 7.808 344.205 8.256L343.437 6.984C344.077 6.44 344.845 6.024 345.741 5.736C346.637 5.432 347.581 5.28 348.573 5.28C350.205 5.28 351.461 5.688 352.341 6.504C353.237 7.304 353.685 8.528 353.685 10.176V18H352.053ZM347.709 18.12C346.765 18.12 345.941 17.968 345.237 17.664C344.549 17.344 344.021 16.912 343.653 16.368C343.285 15.808 343.101 15.168 343.101 14.448C343.101 13.792 343.253 13.2 343.557 12.672C343.877 12.128 344.389 11.696 345.093 11.376C345.813 11.04 346.773 10.872 347.973 10.872H352.317V12.144H348.021C346.805 12.144 345.957 12.36 345.477 12.792C345.013 13.224 344.781 13.76 344.781 14.4C344.781 15.12 345.061 15.696 345.621 16.128C346.181 16.56 346.965 16.776 347.973 16.776C348.933 16.776 349.757 16.56 350.445 16.128C351.149 15.68 351.661 15.04 351.981 14.208L352.365 15.384C352.045 16.216 351.485 16.88 350.685 17.376C349.901 17.872 348.909 18.12 347.709 18.12ZM364.746 5.28C365.77 5.28 366.666 5.48 367.434 5.88C368.218 6.264 368.826 6.856 369.258 7.656C369.706 8.456 369.93 9.464 369.93 10.68V18H368.226V10.848C368.226 9.52 367.89 8.52 367.218 7.848C366.562 7.16 365.634 6.816 364.434 6.816C363.538 6.816 362.754 7 362.082 7.368C361.426 7.72 360.914 8.24 360.546 8.928C360.194 9.6 360.018 10.416 360.018 11.376V18H358.314V5.4H359.946V8.856L359.682 8.208C360.082 7.296 360.722 6.584 361.602 6.072C362.482 5.544 363.53 5.28 364.746 5.28ZM379.548 18.12C378.348 18.12 377.268 17.848 376.308 17.304C375.364 16.76 374.62 16.008 374.076 15.048C373.532 14.072 373.26 12.952 373.26 11.688C373.26 10.408 373.532 9.288 374.076 8.328C374.62 7.368 375.364 6.624 376.308 6.096C377.268 5.552 378.348 5.28 379.548 5.28C380.652 5.28 381.636 5.528 382.5 6.024C383.38 6.52 384.076 7.248 384.588 8.208C385.116 9.152 385.38 10.312 385.38 11.688C385.38 13.048 385.124 14.208 384.612 15.168C384.1 16.128 383.404 16.864 382.524 17.376C381.66 17.872 380.668 18.12 379.548 18.12ZM379.668 16.608C380.564 16.608 381.364 16.408 382.068 16.008C382.788 15.592 383.348 15.016 383.748 14.28C384.164 13.528 384.372 12.664 384.372 11.688C384.372 10.696 384.164 9.832 383.748 9.096C383.348 8.36 382.788 7.792 382.068 7.392C381.364 6.976 380.564 6.768 379.668 6.768C378.788 6.768 377.996 6.976 377.292 7.392C376.588 7.792 376.028 8.36 375.612 9.096C375.196 9.832 374.988 10.696 374.988 11.688C374.988 12.664 375.196 13.528 375.612 14.28C376.028 15.016 376.588 15.592 377.292 16.008C377.996 16.408 378.788 16.608 379.668 16.608ZM384.42 18V14.208L384.588 11.664L384.348 9.12V0.191999H386.052V18H384.42ZM390.798 18V0.191999H392.502V18H390.798ZM402.595 18.12C401.283 18.12 400.131 17.848 399.139 17.304C398.147 16.744 397.371 15.984 396.811 15.024C396.251 14.048 395.971 12.936 395.971 11.688C395.971 10.44 396.235 9.336 396.763 8.376C397.307 7.416 398.043 6.664 398.971 6.12C399.915 5.56 400.971 5.28 402.139 5.28C403.323 5.28 404.371 5.552 405.283 6.096C406.211 6.624 406.939 7.376 407.467 8.352C407.995 9.312 408.259 10.424 408.259 11.688C408.259 11.768 408.251 11.856 408.235 11.952C408.235 12.032 408.235 12.12 408.235 12.216H397.267V10.944H407.323L406.651 11.448C406.651 10.536 406.451 9.728 406.051 9.024C405.667 8.304 405.139 7.744 404.467 7.344C403.795 6.944 403.019 6.744 402.139 6.744C401.275 6.744 400.499 6.944 399.811 7.344C399.123 7.744 398.587 8.304 398.203 9.024C397.819 9.744 397.627 10.568 397.627 11.496V11.76C397.627 12.72 397.835 13.568 398.251 14.304C398.683 15.024 399.275 15.592 400.027 16.008C400.795 16.408 401.667 16.608 402.643 16.608C403.411 16.608 404.123 16.472 404.779 16.2C405.451 15.928 406.027 15.512 406.507 14.952L407.467 16.056C406.907 16.728 406.203 17.24 405.355 17.592C404.523 17.944 403.603 18.12 402.595 18.12ZM410.696 21.504L411.752 17.064L411.944 18.096C411.576 18.096 411.264 17.976 411.008 17.736C410.768 17.496 410.648 17.184 410.648 16.8C410.648 16.416 410.768 16.104 411.008 15.864C411.264 15.624 411.568 15.504 411.92 15.504C412.288 15.504 412.584 15.632 412.808 15.888C413.048 16.144 413.168 16.448 413.168 16.8C413.168 16.928 413.16 17.056 413.144 17.184C413.128 17.312 413.096 17.456 413.048 17.616C413 17.776 412.936 17.968 412.856 18.192L411.848 21.504H410.696ZM420.767 18L428.447 1.2H430.199L437.879 18H436.007L428.951 2.232H429.671L422.615 18H420.767ZM423.791 13.512L424.319 12.072H434.087L434.615 13.512H423.791ZM440.298 18V0.191999H442.002V18H440.298ZM446.743 18V5.4H448.447V18H446.743ZM447.607 2.616C447.255 2.616 446.959 2.496 446.719 2.256C446.479 2.016 446.359 1.728 446.359 1.392C446.359 1.056 446.479 0.775999 446.719 0.551999C446.959 0.311999 447.255 0.191999 447.607 0.191999C447.959 0.191999 448.255 0.303999 448.495 0.527999C448.735 0.751999 448.855 1.032 448.855 1.368C448.855 1.72 448.735 2.016 448.495 2.256C448.271 2.496 447.975 2.616 447.607 2.616ZM458.565 22.776C457.413 22.776 456.309 22.608 455.253 22.272C454.197 21.936 453.341 21.456 452.685 20.832L453.549 19.536C454.141 20.064 454.869 20.48 455.733 20.784C456.613 21.104 457.541 21.264 458.517 21.264C460.117 21.264 461.293 20.888 462.045 20.136C462.797 19.4 463.173 18.248 463.173 16.68V13.536L463.413 11.376L463.245 9.216V5.4H464.877V16.464C464.877 18.64 464.341 20.232 463.269 21.24C462.213 22.264 460.645 22.776 458.565 22.776ZM458.253 17.52C457.053 17.52 455.973 17.264 455.013 16.752C454.053 16.224 453.293 15.496 452.733 14.568C452.189 13.64 451.917 12.576 451.917 11.376C451.917 10.176 452.189 9.12 452.733 8.208C453.293 7.28 454.053 6.56 455.013 6.048C455.973 5.536 457.053 5.28 458.253 5.28C459.373 5.28 460.381 5.512 461.277 5.976C462.173 6.44 462.885 7.128 463.413 8.04C463.941 8.952 464.205 10.064 464.205 11.376C464.205 12.688 463.941 13.8 463.413 14.712C462.885 15.624 462.173 16.32 461.277 16.8C460.381 17.28 459.373 17.52 458.253 17.52ZM458.421 16.008C459.349 16.008 460.173 15.816 460.893 15.432C461.613 15.032 462.181 14.488 462.597 13.8C463.013 13.096 463.221 12.288 463.221 11.376C463.221 10.464 463.013 9.664 462.597 8.976C462.181 8.288 461.613 7.752 460.893 7.368C460.173 6.968 459.349 6.768 458.421 6.768C457.509 6.768 456.685 6.968 455.949 7.368C455.229 7.752 454.661 8.288 454.245 8.976C453.845 9.664 453.645 10.464 453.645 11.376C453.645 12.288 453.845 13.096 454.245 13.8C454.661 14.488 455.229 15.032 455.949 15.432C456.685 15.816 457.509 16.008 458.421 16.008ZM476.05 5.28C477.074 5.28 477.97 5.48 478.738 5.88C479.522 6.264 480.13 6.856 480.562 7.656C481.01 8.456 481.234 9.464 481.234 10.68V18H479.53V10.848C479.53 9.52 479.194 8.52 478.522 7.848C477.866 7.16 476.938 6.816 475.738 6.816C474.842 6.816 474.058 7 473.386 7.368C472.73 7.72 472.218 8.24 471.85 8.928C471.498 9.6 471.322 10.416 471.322 11.376V18H469.618V5.4H471.25V8.856L470.986 8.208C471.386 7.296 472.026 6.584 472.906 6.072C473.786 5.544 474.834 5.28 476.05 5.28ZM491.189 18.12C489.877 18.12 488.725 17.848 487.733 17.304C486.741 16.744 485.965 15.984 485.405 15.024C484.845 14.048 484.565 12.936 484.565 11.688C484.565 10.44 484.829 9.336 485.357 8.376C485.901 7.416 486.637 6.664 487.565 6.12C488.509 5.56 489.565 5.28 490.733 5.28C491.917 5.28 492.965 5.552 493.877 6.096C494.805 6.624 495.533 7.376 496.061 8.352C496.589 9.312 496.853 10.424 496.853 11.688C496.853 11.768 496.845 11.856 496.829 11.952C496.829 12.032 496.829 12.12 496.829 12.216H485.861V10.944H495.917L495.245 11.448C495.245 10.536 495.045 9.728 494.645 9.024C494.261 8.304 493.733 7.744 493.061 7.344C492.389 6.944 491.613 6.744 490.733 6.744C489.869 6.744 489.093 6.944 488.405 7.344C487.717 7.744 487.181 8.304 486.797 9.024C486.413 9.744 486.221 10.568 486.221 11.496V11.76C486.221 12.72 486.429 13.568 486.845 14.304C487.277 15.024 487.869 15.592 488.621 16.008C489.389 16.408 490.261 16.608 491.237 16.608C492.005 16.608 492.717 16.472 493.373 16.2C494.045 15.928 494.621 15.512 495.101 14.952L496.061 16.056C495.501 16.728 494.797 17.24 493.949 17.592C493.117 17.944 492.197 18.12 491.189 18.12ZM505.337 18.12C504.137 18.12 503.057 17.848 502.097 17.304C501.153 16.76 500.409 16.008 499.865 15.048C499.321 14.072 499.049 12.952 499.049 11.688C499.049 10.408 499.321 9.288 499.865 8.328C500.409 7.368 501.153 6.624 502.097 6.096C503.057 5.552 504.137 5.28 505.337 5.28C506.441 5.28 507.425 5.528 508.289 6.024C509.169 6.52 509.865 7.248 510.377 8.208C510.905 9.152 511.169 10.312 511.169 11.688C511.169 13.048 510.913 14.208 510.401 15.168C509.889 16.128 509.193 16.864 508.313 17.376C507.449 17.872 506.457 18.12 505.337 18.12ZM505.457 16.608C506.353 16.608 507.153 16.408 507.857 16.008C508.577 15.592 509.137 15.016 509.537 14.28C509.953 13.528 510.161 12.664 510.161 11.688C510.161 10.696 509.953 9.832 509.537 9.096C509.137 8.36 508.577 7.792 507.857 7.392C507.153 6.976 506.353 6.768 505.457 6.768C504.577 6.768 503.785 6.976 503.081 7.392C502.377 7.792 501.817 8.36 501.401 9.096C500.985 9.832 500.777 10.696 500.777 11.688C500.777 12.664 500.985 13.528 501.401 14.28C501.817 15.016 502.377 15.592 503.081 16.008C503.785 16.408 504.577 16.608 505.457 16.608ZM510.209 18V14.208L510.377 11.664L510.137 9.12V0.191999H511.841V18H510.209ZM524.812 8.712H533.692V10.224H524.812V8.712ZM525.004 16.464H535.108V18H523.228V1.2H534.748V2.736H525.004V16.464ZM543.751 18.12C542.551 18.12 541.471 17.848 540.511 17.304C539.567 16.76 538.823 16.008 538.279 15.048C537.735 14.072 537.463 12.952 537.463 11.688C537.463 10.408 537.735 9.288 538.279 8.328C538.823 7.368 539.567 6.624 540.511 6.096C541.471 5.552 542.551 5.28 543.751 5.28C544.855 5.28 545.839 5.528 546.703 6.024C547.583 6.52 548.279 7.248 548.791 8.208C549.319 9.152 549.583 10.312 549.583 11.688C549.583 13.048 549.327 14.208 548.815 15.168C548.303 16.128 547.607 16.864 546.727 17.376C545.863 17.872 544.871 18.12 543.751 18.12ZM543.871 16.608C544.767 16.608 545.567 16.408 546.271 16.008C546.991 15.592 547.551 15.016 547.951 14.28C548.367 13.528 548.575 12.664 548.575 11.688C548.575 10.696 548.367 9.832 547.951 9.096C547.551 8.36 546.991 7.792 546.271 7.392C545.567 6.976 544.767 6.768 543.871 6.768C542.991 6.768 542.199 6.976 541.495 7.392C540.791 7.792 540.231 8.36 539.815 9.096C539.399 9.832 539.191 10.696 539.191 11.688C539.191 12.664 539.399 13.528 539.815 14.28C540.231 15.016 540.791 15.592 541.495 16.008C542.199 16.408 542.991 16.608 543.871 16.608ZM548.623 18V14.208L548.791 11.664L548.551 9.12V0.191999H550.255V18H548.623ZM560.377 22.776C559.225 22.776 558.121 22.608 557.065 22.272C556.009 21.936 555.153 21.456 554.497 20.832L555.361 19.536C555.953 20.064 556.681 20.48 557.545 20.784C558.425 21.104 559.353 21.264 560.329 21.264C561.929 21.264 563.105 20.888 563.857 20.136C564.609 19.4 564.985 18.248 564.985 16.68V13.536L565.225 11.376L565.057 9.216V5.4H566.689V16.464C566.689 18.64 566.153 20.232 565.081 21.24C564.025 22.264 562.457 22.776 560.377 22.776ZM560.065 17.52C558.865 17.52 557.785 17.264 556.825 16.752C555.865 16.224 555.105 15.496 554.545 14.568C554.001 13.64 553.729 12.576 553.729 11.376C553.729 10.176 554.001 9.12 554.545 8.208C555.105 7.28 555.865 6.56 556.825 6.048C557.785 5.536 558.865 5.28 560.065 5.28C561.185 5.28 562.193 5.512 563.089 5.976C563.985 6.44 564.697 7.128 565.225 8.04C565.753 8.952 566.017 10.064 566.017 11.376C566.017 12.688 565.753 13.8 565.225 14.712C564.697 15.624 563.985 16.32 563.089 16.8C562.193 17.28 561.185 17.52 560.065 17.52ZM560.233 16.008C561.161 16.008 561.985 15.816 562.705 15.432C563.425 15.032 563.993 14.488 564.409 13.8C564.825 13.096 565.033 12.288 565.033 11.376C565.033 10.464 564.825 9.664 564.409 8.976C563.993 8.288 563.425 7.752 562.705 7.368C561.985 6.968 561.161 6.768 560.233 6.768C559.321 6.768 558.497 6.968 557.761 7.368C557.041 7.752 556.473 8.288 556.057 8.976C555.657 9.664 555.457 10.464 555.457 11.376C555.457 12.288 555.657 13.096 556.057 13.8C556.473 14.488 557.041 15.032 557.761 15.432C558.497 15.816 559.321 16.008 560.233 16.008ZM576.783 18.12C575.471 18.12 574.319 17.848 573.327 17.304C572.335 16.744 571.559 15.984 570.999 15.024C570.439 14.048 570.159 12.936 570.159 11.688C570.159 10.44 570.423 9.336 570.951 8.376C571.495 7.416 572.231 6.664 573.159 6.12C574.103 5.56 575.159 5.28 576.327 5.28C577.511 5.28 578.559 5.552 579.471 6.096C580.399 6.624 581.127 7.376 581.655 8.352C582.183 9.312 582.447 10.424 582.447 11.688C582.447 11.768 582.439 11.856 582.423 11.952C582.423 12.032 582.423 12.12 582.423 12.216H571.455V10.944H581.511L580.839 11.448C580.839 10.536 580.639 9.728 580.239 9.024C579.855 8.304 579.327 7.744 578.655 7.344C577.983 6.944 577.207 6.744 576.327 6.744C575.463 6.744 574.687 6.944 573.999 7.344C573.311 7.744 572.775 8.304 572.391 9.024C572.007 9.744 571.815 10.568 571.815 11.496V11.76C571.815 12.72 572.023 13.568 572.439 14.304C572.871 15.024 573.463 15.592 574.215 16.008C574.983 16.408 575.855 16.608 576.831 16.608C577.599 16.608 578.311 16.472 578.967 16.2C579.639 15.928 580.215 15.512 580.695 14.952L581.655 16.056C581.095 16.728 580.391 17.24 579.543 17.592C578.711 17.944 577.791 18.12 576.783 18.12ZM589.299 18.12C588.259 18.12 587.275 17.976 586.347 17.688C585.419 17.384 584.691 17.008 584.163 16.56L584.931 15.216C585.443 15.6 586.099 15.936 586.899 16.224C587.699 16.496 588.539 16.632 589.419 16.632C590.619 16.632 591.483 16.448 592.011 16.08C592.539 15.696 592.803 15.192 592.803 14.568C592.803 14.104 592.651 13.744 592.347 13.488C592.059 13.216 591.675 13.016 591.195 12.888C590.715 12.744 590.179 12.624 589.587 12.528C588.995 12.432 588.403 12.32 587.811 12.192C587.235 12.064 586.707 11.88 586.227 11.64C585.747 11.384 585.355 11.04 585.051 10.608C584.763 10.176 584.619 9.6 584.619 8.88C584.619 8.192 584.811 7.576 585.195 7.032C585.579 6.488 586.139 6.064 586.875 5.76C587.627 5.44 588.539 5.28 589.611 5.28C590.427 5.28 591.243 5.392 592.059 5.616C592.875 5.824 593.547 6.104 594.075 6.456L593.331 7.824C592.771 7.44 592.171 7.168 591.531 7.008C590.891 6.832 590.251 6.744 589.611 6.744C588.475 6.744 587.635 6.944 587.091 7.344C586.563 7.728 586.299 8.224 586.299 8.832C586.299 9.312 586.443 9.688 586.731 9.96C587.035 10.232 587.427 10.448 587.907 10.608C588.403 10.752 588.939 10.872 589.515 10.968C590.107 11.064 590.691 11.184 591.267 11.328C591.859 11.456 592.395 11.64 592.875 11.88C593.371 12.104 593.763 12.432 594.051 12.864C594.355 13.28 594.507 13.832 594.507 14.52C594.507 15.256 594.299 15.896 593.883 16.44C593.483 16.968 592.891 17.384 592.107 17.688C591.339 17.976 590.403 18.12 589.299 18.12ZM608.091 18L602.427 1.2H604.251L609.555 17.016H608.643L614.115 1.2H615.747L621.147 17.016H620.283L625.635 1.2H627.339L621.675 18H619.803L614.643 3H615.123L609.939 18H608.091ZM630.165 18V5.4H631.869V18H630.165ZM631.029 2.616C630.677 2.616 630.381 2.496 630.141 2.256C629.901 2.016 629.781 1.728 629.781 1.392C629.781 1.056 629.901 0.775999 630.141 0.551999C630.381 0.311999 630.677 0.191999 631.029 0.191999C631.381 0.191999 631.677 0.303999 631.917 0.527999C632.157 0.751999 632.277 1.032 632.277 1.368C632.277 1.72 632.157 2.016 631.917 2.256C631.693 2.496 631.397 2.616 631.029 2.616ZM636.61 18V0.191999H638.314V18H636.61ZM643.056 18V0.191999H644.76V18H643.056ZM653.454 18L661.134 1.2H662.886L670.566 18H668.694L661.638 2.232H662.358L655.302 18H653.454ZM656.478 13.512L657.006 12.072H666.774L667.302 13.512H656.478ZM672.985 18V0.191999H674.689V18H672.985ZM681.999 18L677.247 5.4H678.879L683.199 17.088H682.455L686.895 5.4H688.359L692.751 17.088H692.007L696.399 5.4H697.959L693.183 18H691.575L687.351 7.008H687.855L683.607 18H681.999ZM708.045 18V15.216L707.973 14.76V10.104C707.973 9.032 707.669 8.208 707.061 7.632C706.469 7.056 705.581 6.768 704.397 6.768C703.581 6.768 702.805 6.904 702.069 7.176C701.333 7.448 700.709 7.808 700.197 8.256L699.429 6.984C700.069 6.44 700.837 6.024 701.733 5.736C702.629 5.432 703.573 5.28 704.565 5.28C706.197 5.28 707.453 5.688 708.333 6.504C709.229 7.304 709.677 8.528 709.677 10.176V18H708.045ZM703.701 18.12C702.757 18.12 701.933 17.968 701.229 17.664C700.541 17.344 700.013 16.912 699.645 16.368C699.277 15.808 699.093 15.168 699.093 14.448C699.093 13.792 699.245 13.2 699.549 12.672C699.869 12.128 700.381 11.696 701.085 11.376C701.805 11.04 702.765 10.872 703.965 10.872H708.309V12.144H704.013C702.797 12.144 701.949 12.36 701.469 12.792C701.005 13.224 700.773 13.76 700.773 14.4C700.773 15.12 701.053 15.696 701.613 16.128C702.173 16.56 702.957 16.776 703.965 16.776C704.925 16.776 705.749 16.56 706.437 16.128C707.141 15.68 707.653 15.04 707.973 14.208L708.357 15.384C708.037 16.216 707.477 16.88 706.677 17.376C705.893 17.872 704.901 18.12 703.701 18.12ZM714.167 22.776C713.575 22.776 713.007 22.68 712.463 22.488C711.935 22.296 711.479 22.008 711.095 21.624L711.887 20.352C712.207 20.656 712.551 20.888 712.919 21.048C713.303 21.224 713.727 21.312 714.191 21.312C714.751 21.312 715.231 21.152 715.631 20.832C716.047 20.528 716.439 19.984 716.807 19.2L717.623 17.352L717.815 17.088L722.999 5.4H724.679L718.367 19.512C718.015 20.328 717.623 20.976 717.191 21.456C716.775 21.936 716.319 22.272 715.823 22.464C715.327 22.672 714.775 22.776 714.167 22.776ZM717.527 18.36L711.719 5.4H713.495L718.631 16.968L717.527 18.36ZM730.323 18.12C729.283 18.12 728.299 17.976 727.371 17.688C726.443 17.384 725.715 17.008 725.187 16.56L725.955 15.216C726.467 15.6 727.123 15.936 727.923 16.224C728.723 16.496 729.563 16.632 730.443 16.632C731.643 16.632 732.507 16.448 733.035 16.08C733.563 15.696 733.827 15.192 733.827 14.568C733.827 14.104 733.675 13.744 733.371 13.488C733.083 13.216 732.699 13.016 732.219 12.888C731.739 12.744 731.203 12.624 730.611 12.528C730.019 12.432 729.427 12.32 728.835 12.192C728.259 12.064 727.731 11.88 727.251 11.64C726.771 11.384 726.379 11.04 726.075 10.608C725.787 10.176 725.643 9.6 725.643 8.88C725.643 8.192 725.835 7.576 726.219 7.032C726.603 6.488 727.163 6.064 727.899 5.76C728.651 5.44 729.563 5.28 730.635 5.28C731.451 5.28 732.267 5.392 733.083 5.616C733.899 5.824 734.571 6.104 735.099 6.456L734.355 7.824C733.795 7.44 733.195 7.168 732.555 7.008C731.915 6.832 731.275 6.744 730.635 6.744C729.499 6.744 728.659 6.944 728.115 7.344C727.587 7.728 727.323 8.224 727.323 8.832C727.323 9.312 727.467 9.688 727.755 9.96C728.059 10.232 728.451 10.448 728.931 10.608C729.427 10.752 729.963 10.872 730.539 10.968C731.131 11.064 731.715 11.184 732.291 11.328C732.883 11.456 733.419 11.64 733.899 11.88C734.395 12.104 734.787 12.432 735.075 12.864C735.379 13.28 735.531 13.832 735.531 14.52C735.531 15.256 735.323 15.896 734.907 16.44C734.507 16.968 733.915 17.384 733.131 17.688C732.363 17.976 731.427 18.12 730.323 18.12ZM757.587 1.2H759.339V18H757.587V1.2ZM747.075 18H745.299V1.2H747.075V18ZM757.755 10.248H746.883V8.688H757.755V10.248ZM772.358 18V15.216L772.286 14.76V10.104C772.286 9.032 771.982 8.208 771.374 7.632C770.782 7.056 769.894 6.768 768.71 6.768C767.894 6.768 767.118 6.904 766.382 7.176C765.646 7.448 765.022 7.808 764.51 8.256L763.742 6.984C764.382 6.44 765.15 6.024 766.046 5.736C766.942 5.432 767.886 5.28 768.878 5.28C770.51 5.28 771.766 5.688 772.646 6.504C773.542 7.304 773.99 8.528 773.99 10.176V18H772.358ZM768.014 18.12C767.07 18.12 766.246 17.968 765.542 17.664C764.854 17.344 764.326 16.912 763.958 16.368C763.59 15.808 763.406 15.168 763.406 14.448C763.406 13.792 763.558 13.2 763.862 12.672C764.182 12.128 764.694 11.696 765.398 11.376C766.118 11.04 767.078 10.872 768.278 10.872H772.622V12.144H768.326C767.11 12.144 766.262 12.36 765.782 12.792C765.318 13.224 765.086 13.76 765.086 14.4C765.086 15.12 765.366 15.696 765.926 16.128C766.486 16.56 767.27 16.776 768.278 16.776C769.238 16.776 770.062 16.56 770.75 16.128C771.454 15.68 771.966 15.04 772.286 14.208L772.67 15.384C772.35 16.216 771.79 16.88 770.99 17.376C770.206 17.872 769.214 18.12 768.014 18.12ZM781.624 18L776.032 5.4H777.808L782.944 17.088H782.104L787.312 5.4H788.992L783.376 18H781.624ZM796.392 18.12C795.08 18.12 793.928 17.848 792.936 17.304C791.944 16.744 791.168 15.984 790.608 15.024C790.048 14.048 789.768 12.936 789.768 11.688C789.768 10.44 790.032 9.336 790.56 8.376C791.104 7.416 791.84 6.664 792.768 6.12C793.712 5.56 794.768 5.28 795.936 5.28C797.12 5.28 798.168 5.552 799.08 6.096C800.008 6.624 800.736 7.376 801.264 8.352C801.792 9.312 802.056 10.424 802.056 11.688C802.056 11.768 802.048 11.856 802.032 11.952C802.032 12.032 802.032 12.12 802.032 12.216H791.064V10.944H801.12L800.448 11.448C800.448 10.536 800.248 9.728 799.848 9.024C799.464 8.304 798.936 7.744 798.264 7.344C797.592 6.944 796.816 6.744 795.936 6.744C795.072 6.744 794.296 6.944 793.608 7.344C792.92 7.744 792.384 8.304 792 9.024C791.616 9.744 791.424 10.568 791.424 11.496V11.76C791.424 12.72 791.632 13.568 792.048 14.304C792.48 15.024 793.072 15.592 793.824 16.008C794.592 16.408 795.464 16.608 796.44 16.608C797.208 16.608 797.92 16.472 798.576 16.2C799.248 15.928 799.824 15.512 800.304 14.952L801.264 16.056C800.704 16.728 800 17.24 799.152 17.592C798.32 17.944 797.4 18.12 796.392 18.12ZM815.43 18V2.736H809.526V1.2H823.11V2.736H817.206V18H815.43ZM832.019 5.28C833.043 5.28 833.939 5.48 834.707 5.88C835.491 6.264 836.099 6.856 836.531 7.656C836.979 8.456 837.203 9.464 837.203 10.68V18H835.499V10.848C835.499 9.52 835.163 8.52 834.491 7.848C833.835 7.16 832.907 6.816 831.707 6.816C830.811 6.816 830.027 7 829.355 7.368C828.699 7.72 828.187 8.24 827.819 8.928C827.467 9.6 827.291 10.416 827.291 11.376V18H825.587V0.191999H827.291V8.856L826.955 8.208C827.355 7.296 827.995 6.584 828.875 6.072C829.755 5.544 830.803 5.28 832.019 5.28ZM847.158 18.12C845.846 18.12 844.694 17.848 843.702 17.304C842.71 16.744 841.934 15.984 841.374 15.024C840.814 14.048 840.534 12.936 840.534 11.688C840.534 10.44 840.798 9.336 841.326 8.376C841.87 7.416 842.606 6.664 843.534 6.12C844.478 5.56 845.534 5.28 846.702 5.28C847.886 5.28 848.934 5.552 849.846 6.096C850.774 6.624 851.502 7.376 852.03 8.352C852.558 9.312 852.822 10.424 852.822 11.688C852.822 11.768 852.814 11.856 852.798 11.952C852.798 12.032 852.798 12.12 852.798 12.216H841.83V10.944H851.886L851.214 11.448C851.214 10.536 851.014 9.728 850.614 9.024C850.23 8.304 849.702 7.744 849.03 7.344C848.358 6.944 847.582 6.744 846.702 6.744C845.838 6.744 845.062 6.944 844.374 7.344C843.686 7.744 843.15 8.304 842.766 9.024C842.382 9.744 842.19 10.568 842.19 11.496V11.76C842.19 12.72 842.398 13.568 842.814 14.304C843.246 15.024 843.838 15.592 844.59 16.008C845.358 16.408 846.23 16.608 847.206 16.608C847.974 16.608 848.686 16.472 849.342 16.2C850.014 15.928 850.59 15.512 851.07 14.952L852.03 16.056C851.47 16.728 850.766 17.24 849.918 17.592C849.086 17.944 848.166 18.12 847.158 18.12ZM860.243 18L867.923 1.2H869.675L877.355 18H875.483L868.427 2.232H869.147L862.091 18H860.243ZM863.267 13.512L863.795 12.072H873.563L874.091 13.512H863.267ZM886.206 5.28C887.23 5.28 888.126 5.48 888.894 5.88C889.678 6.264 890.286 6.856 890.718 7.656C891.166 8.456 891.39 9.464 891.39 10.68V18H889.686V10.848C889.686 9.52 889.35 8.52 888.678 7.848C888.022 7.16 887.094 6.816 885.894 6.816C884.998 6.816 884.214 7 883.542 7.368C882.886 7.72 882.374 8.24 882.006 8.928C881.654 9.6 881.478 10.416 881.478 11.376V18H879.774V5.4H881.406V8.856L881.142 8.208C881.542 7.296 882.182 6.584 883.062 6.072C883.942 5.544 884.99 5.28 886.206 5.28ZM899.377 18.12C898.337 18.12 897.353 17.976 896.425 17.688C895.497 17.384 894.769 17.008 894.241 16.56L895.009 15.216C895.521 15.6 896.177 15.936 896.977 16.224C897.777 16.496 898.617 16.632 899.497 16.632C900.697 16.632 901.561 16.448 902.089 16.08C902.617 15.696 902.881 15.192 902.881 14.568C902.881 14.104 902.729 13.744 902.425 13.488C902.137 13.216 901.753 13.016 901.273 12.888C900.793 12.744 900.257 12.624 899.665 12.528C899.073 12.432 898.481 12.32 897.889 12.192C897.313 12.064 896.785 11.88 896.305 11.64C895.825 11.384 895.433 11.04 895.129 10.608C894.841 10.176 894.697 9.6 894.697 8.88C894.697 8.192 894.889 7.576 895.273 7.032C895.657 6.488 896.217 6.064 896.953 5.76C897.705 5.44 898.617 5.28 899.689 5.28C900.505 5.28 901.321 5.392 902.137 5.616C902.953 5.824 903.625 6.104 904.153 6.456L903.409 7.824C902.849 7.44 902.249 7.168 901.609 7.008C900.969 6.832 900.329 6.744 899.689 6.744C898.553 6.744 897.713 6.944 897.169 7.344C896.641 7.728 896.377 8.224 896.377 8.832C896.377 9.312 896.521 9.688 896.809 9.96C897.113 10.232 897.505 10.448 897.985 10.608C898.481 10.752 899.017 10.872 899.593 10.968C900.185 11.064 900.769 11.184 901.345 11.328C901.937 11.456 902.473 11.64 902.953 11.88C903.449 12.104 903.841 12.432 904.129 12.864C904.433 13.28 904.585 13.832 904.585 14.52C904.585 15.256 904.377 15.896 903.961 16.44C903.561 16.968 902.969 17.384 902.185 17.688C901.417 17.976 900.481 18.12 899.377 18.12ZM910.046 18L905.294 5.4H906.926L911.246 17.088H910.502L914.942 5.4H916.406L920.798 17.088H920.054L924.446 5.4H926.006L921.23 18H919.622L915.398 7.008H915.902L911.654 18H910.046ZM933.572 18.12C932.26 18.12 931.108 17.848 930.116 17.304C929.124 16.744 928.348 15.984 927.788 15.024C927.228 14.048 926.948 12.936 926.948 11.688C926.948 10.44 927.212 9.336 927.74 8.376C928.284 7.416 929.02 6.664 929.948 6.12C930.892 5.56 931.948 5.28 933.116 5.28C934.3 5.28 935.348 5.552 936.26 6.096C937.188 6.624 937.916 7.376 938.444 8.352C938.972 9.312 939.236 10.424 939.236 11.688C939.236 11.768 939.228 11.856 939.212 11.952C939.212 12.032 939.212 12.12 939.212 12.216H928.244V10.944H938.3L937.628 11.448C937.628 10.536 937.428 9.728 937.028 9.024C936.644 8.304 936.116 7.744 935.444 7.344C934.772 6.944 933.996 6.744 933.116 6.744C932.252 6.744 931.476 6.944 930.788 7.344C930.1 7.744 929.564 8.304 929.18 9.024C928.796 9.744 928.604 10.568 928.604 11.496V11.76C928.604 12.72 928.812 13.568 929.228 14.304C929.66 15.024 930.252 15.592 931.004 16.008C931.772 16.408 932.644 16.608 933.62 16.608C934.388 16.608 935.1 16.472 935.756 16.2C936.428 15.928 937.004 15.512 937.484 14.952L938.444 16.056C937.884 16.728 937.18 17.24 936.332 17.592C935.5 17.944 934.58 18.12 933.572 18.12ZM942.704 18V5.4H944.336V8.832L944.168 8.232C944.52 7.272 945.112 6.544 945.944 6.048C946.776 5.536 947.808 5.28 949.04 5.28V6.936C948.976 6.936 948.912 6.936 948.848 6.936C948.784 6.92 948.72 6.912 948.656 6.912C947.328 6.912 946.288 7.32 945.536 8.136C944.784 8.936 944.408 10.08 944.408 11.568V18H942.704Z" fill="white"/>
</svg>
