<svg width="72" height="24" viewBox="0 0 72 24" fill="none" xmlns="http://www.w3.org/2000/svg">
<path d="M9.61761 23V14.84L10.0031 15.9002L0.558083 0.51181H2.35714L10.9348 14.4866H10.0352L18.6129 0.51181H20.3156L10.8705 15.9002L11.256 14.84V23H9.61761ZM28.5215 23.1285C26.9152 23.1285 25.4802 22.7644 24.2166 22.0362C22.9744 21.308 21.9785 20.3014 21.2289 19.0164C20.5007 17.7313 20.1366 16.2643 20.1366 14.6151C20.1366 12.9446 20.5007 11.4775 21.2289 10.2139C21.9785 8.92882 22.9744 7.9222 24.2166 7.19402C25.4802 6.46583 26.9152 6.10173 28.5215 6.10173C30.1278 6.10173 31.5628 6.46583 32.8264 7.19402C34.09 7.9222 35.0859 8.92882 35.8141 10.2139C36.5423 11.4775 36.9064 12.9446 36.9064 14.6151C36.9064 16.2643 36.5423 17.7313 35.8141 19.0164C35.0859 20.3014 34.09 21.308 32.8264 22.0362C31.5628 22.7644 30.1278 23.1285 28.5215 23.1285ZM28.5215 21.6828C29.8065 21.6828 30.9631 21.3937 31.9911 20.8154C33.0191 20.2157 33.8223 19.3805 34.4006 18.3096C34.9788 17.2387 35.268 16.0072 35.268 14.6151C35.268 13.2016 34.9788 11.9701 34.4006 10.9206C33.8223 9.84976 33.0191 9.0252 31.9911 8.44693C30.9631 7.84724 29.8065 7.5474 28.5215 7.5474C27.2365 7.5474 26.0799 7.84724 25.0519 8.44693C24.0453 9.0252 23.2421 9.84976 22.6424 10.9206C22.0642 11.9701 21.775 13.2016 21.775 14.6151C21.775 16.0072 22.0642 17.2387 22.6424 18.3096C23.2421 19.3805 24.0453 20.2157 25.0519 20.8154C26.0799 21.3937 27.2365 21.6828 28.5215 21.6828ZM48.7004 23.1285C47.2654 23.1285 46.0232 22.8715 44.9738 22.3575C43.9243 21.822 43.1105 21.0296 42.5322 19.9802C41.9753 18.9093 41.6969 17.5921 41.6969 16.0287V6.23024H43.3032V15.9002C43.3032 17.7849 43.7851 19.2198 44.7489 20.205C45.7127 21.1902 47.0727 21.6828 48.8289 21.6828C50.0925 21.6828 51.1848 21.4151 52.1057 20.8797C53.0267 20.3443 53.7334 19.5946 54.226 18.6309C54.7186 17.6457 54.9649 16.4891 54.9649 15.1613V6.23024H56.5712V23H55.0292V18.3417L55.2541 18.8879C54.7615 20.1943 53.9369 21.2331 52.7804 22.0041C51.6453 22.7537 50.2853 23.1285 48.7004 23.1285ZM63.3802 23V6.23024H64.9222V10.8243L64.7616 10.3102C65.2328 8.96094 66.0252 7.9222 67.1389 7.19402C68.2526 6.46583 69.6448 6.10173 71.3153 6.10173V7.6759C71.2511 7.6759 71.1868 7.6759 71.1226 7.6759C71.0583 7.65449 70.9941 7.64378 70.9298 7.64378C69.0665 7.64378 67.6101 8.23276 66.5607 9.41071C65.5112 10.5672 64.9865 12.1843 64.9865 14.2617V23H63.3802Z" fill="white"/>
</svg>
